<svg><defs><font id="Circular-Medium" horiz-adv-x="570"><font-face font-family="Circular Medium" font-weight="500" panose-1="2 0 6 2 0 0 0 1 0 2" ascent="809" descent="-191" x-height="487" cap-height="709" bbox="-51 -238 1520 979" underline-thickness="80" underline-position="-115" unicode-range="U+0020-FEFF"/><glyph glyph-name="f_f" unicode="ff" horiz-adv-x="670" d="M611 625q-11 0-24-3t-23.5-11.5-17.5-23-7-36.5v-64h113V386H539V0H422v386H219V0H102v386H17v101h85v67q0 41 12.5 73.5t35 55T203 717t69 12q22 0 38.5-3.5T333 719v-99q-5 2-15 3.5t-27 1.5q-11 0-24-3t-23.5-11.5-17.5-23-7-36.5v-64h203v67q0 41 12.5 73.5t35 55T523 717t69 12q22 0 38.5-3.5T653 719v-99q-5 2-15 3.5t-27 1.5z"/><glyph glyph-name="f_f_i" unicode="ffi" horiz-adv-x="940" d="M732 659q0 32 22 54t53 22q32 0 54-22t22-54q0-31-22-53t-54-22q-31 0-53 22t-22 53zm-121-34q-11 0-24-3t-23.5-11.5-17.5-23-7-36.5v-64h326V0H750v386H539V0H422v386H219V0H102v386H17v101h85v67q0 41 12.5 73.5t35 55T203 717t69 12q22 0 38.5-3.5T333 719v-99q-5 2-15 3.5t-27 1.5q-12 0-24.5-3t-23-11.5-17.5-23-7-36.5v-64h203v67q0 41 12.5 73.5t35 55T523 717t69 12q22 0 38.5-3.5T653 719v-99q-5 2-15 3.5t-27 1.5z"/><glyph glyph-name="f_f_l" unicode="ffl" horiz-adv-x="940" d="M611 625q-11 0-24-3t-23.5-11.5-17.5-23-7-36.5v-64h211v237h115V0H750v386H539V0H422v386H219V0H102v386H17v101h85v67q0 41 12.5 73.5t35 55T203 717t69 12q22 0 38.5-3.5T333 719v-99q-5 2-15 3.5t-27 1.5q-11 0-24-3t-23.5-11.5-17.5-23-7-36.5v-64h203v67q0 41 12.5 73.5t35 55T523 717t69 12q22 0 38.5-3.5T653 719v-99q-5 2-15 3.5t-27 1.5z"/><glyph glyph-name="f_i" unicode="fi" horiz-adv-x="619" d="M272 729q22 0 38.5-3.5T333 719v-99q-5 2-15 3.5t-27 1.5q-11 0-24-3t-23.5-11.5-17.5-23-7-36.5v-64h324V0H429v386H219V0H102v386H17v101h85v67q0 41 12.5 73.5t35 55T203 717t69 12zm139-70q0 32 21.5 54t53.5 22 54-22 22-54q0-31-22-53t-54-22-53.5 22-21.5 53z"/><glyph glyph-name="f_l" unicode="fl" horiz-adv-x="617" d="M291 625q-11 0-24-3t-23.5-11.5-17.5-23-7-36.5v-64h208v237h115V0H427v386H219V0H102v386H17v101h85v67q0 41 12.5 73.5t35 55T203 717t69 12q22 0 38.5-3.5T333 719v-99q-5 2-15 3.5t-27 1.5z"/><glyph glyph-name=".notdef" horiz-adv-x="574" d="M75 709h424V0H75v709zM403 96v517H171V96h232z"/><glyph glyph-name=".null" horiz-adv-x="0"/><glyph glyph-name="nonmarkingreturn" horiz-adv-x="248"/><glyph glyph-name="space" horiz-adv-x="248"/><glyph glyph-name="exclam" unicode="!" horiz-adv-x="324" d="M204 210h-84L91 709h141zM89 66q0 30 21 52t51 22q31 0 52.5-22T235 66t-21.5-51.5T161-7q-30 0-51 21.5T89 66z"/><glyph glyph-name="quotedbl" unicode="&quot;" horiz-adv-x="390" d="M37 591q0 30 19 49.5t49 19.5 49-19.5 19-49.5q0-5-.5-11.5T170 568l-45-185H84L40 568q-1 4-2 11t-1 12zm180 0q0 30 19 49.5t49 19.5 49-19.5 19-49.5q0-5-.5-11.5T350 568l-45-185h-41l-44 185q-1 4-2 11t-1 12z"/><glyph glyph-name="numbersign" unicode="#" horiz-adv-x="740" d="M94 487h144l35 161h95l-35-161h136l35 161h96l-35-161h130v-87H546l-32-149h132v-87H496L461 0h-96l35 164H264L229 0h-95l35 164H45v87h142l32 149H94v87zm188-236h136l32 149H314z"/><glyph glyph-name="dollar" unicode="$" horiz-adv-x="595" d="M262-117v105q-52 6-91 26.5T105.5 63t-41 61.5T47 190l112 31q4-43 28.5-80T262 92v184l-18 4q-80 18-126 64T72 464q0 37 14 70t39.5 59.5T186 637t76 23v106h92V659q44-7 76-25t54-41 34.5-49.5T536 492l-108-34q-2 11-6.5 24.5t-13.5 27-22 25-32 18.5V374l9-2q90-20 135-71.5T543 182q0-34-12-66t-36-58-59.5-44.5T354-11v-106h-92zm-73 588q0-27 17.5-48.5T262 393v164q-36-9-54.5-33T189 471zm238-295q0 27-17.5 48T354 256V92q38 8 55.5 31.5T427 176z"/><glyph glyph-name="percent" unicode="%" horiz-adv-x="837" d="M142 496q0-32 20.5-53t50.5-21 50 21 20 53-20 52.5-50 20.5-50.5-20.5T142 496zm-93 0q0 34 13 63t35.5 51 52.5 34.5 63 12.5 62.5-12.5 52-34.5 36-51 13.5-63-13.5-63.5-36-51T275 348t-63-12-62.5 12.5-52 34T62 433t-13 63zm511-345q0-32 20.5-53T631 77t50 21 20 53-20 52.5-50 20.5-50.5-20.5T560 151zm-93 0q0 34 13 63t35.5 51 52.5 34.5 63 12.5 62.5-12.5 52-34.5 36-51 13.5-63-13.5-63.5-36-51T693 3 630-9 567.5 3.5t-52 34T480 88t-13 63zM139 0l462 648h104L244 0H139z"/><glyph glyph-name="ampersand" unicode="&amp;" horiz-adv-x="708" d="M473 84q-42-45-89-71T279-13q-51 0-90.5 16T122 45t-40.5 59.5T68 173q0 34 9 61t25 50.5 38.5 43.5 50.5 41l7 5-12 13q-13 13-27 30t-26 36.5-20 42-8 47.5q0 44 16.5 77.5T165 677t61 35 69 12q42 0 77.5-12.5T434 676t40.5-55.5T489 548q0-26-8.5-49T458 456t-32-37-37-31l-31-23 118-123 169 182V274l-97-107L708 0H553zm-192 8q35 0 63 19t55 48l1 1-131 139-24-18q-26-19-42-42t-16-58q0-17 6.5-32.5T212 120t29.5-20.5T281 92zm-62 458q0-26 14-47.5t33-41.5l20-22 41 30q28 21 38 41t10 40q0 32-22 54t-57 22q-14 0-27.5-4.5t-24.5-14-18-24-7-33.5z"/><glyph glyph-name="quotesingle" unicode="'" horiz-adv-x="210" d="M37 591q0 30 19 49.5t49 19.5 49-19.5 19-49.5q0-5-.5-11.5T170 568l-45-185H84L40 568q-1 4-2 11t-1 12z"/><glyph glyph-name="parenleft" unicode="(" horiz-adv-x="317" d="M48 320q0 84 15.5 155t43 131 64 110 78.5 92l68-62q-78-86-124.5-189T146 320t46.5-238T317-107l-68-61q-42 42-78.5 92t-64 110-43 131T48 320z"/><glyph glyph-name="parenright" unicode=")" horiz-adv-x="317" d="M269 320q0-84-15.5-155T211 34 147-76t-79-92L0-107Q79-22 125 82t46 238-46 237T0 746l68 62q42-42 79-92t64-110 42.5-131T269 320z"/><glyph glyph-name="asterisk" unicode="*" horiz-adv-x="448" d="M271 579l119 40 29-86-121-40 78-102-73-54-80 105-75-104-74 54 76 101-121 40 29 86 119-41v131h94V579z"/><glyph glyph-name="plus" unicode="+" horiz-adv-x="579" d="M240 339v195h99V339h188v-95H339V47h-99v197H52v95h188z"/><glyph glyph-name="comma" unicode="," horiz-adv-x="304" d="M65 73q0 32 24 54t59 22q40 0 65.5-29T239 43q0-53-16-90.5T183-110t-53-38.5T76-165v59q17 4 33 14t28.5 24.5 20 32T165 2q-3-2-8.5-3.5T141-3q-33 0-54.5 20.5T65 73z"/><glyph glyph-name="hyphen" unicode="-" horiz-adv-x="372" d="M45 241v103h282V241H45z"/><glyph glyph-name="period" unicode="." horiz-adv-x="296" d="M67 75q0 34 23.5 58t57.5 24 58-24 24-58-24-57.5T148-6 90.5 17.5 67 75z"/><glyph glyph-name="slash" unicode="/" horiz-adv-x="456" d="M107-5H0l349 719h107z"/><glyph glyph-name="zero" unicode="0" horiz-adv-x="619" d="M164 324q0-62 11.5-108.5T210 139q17-22 41-35t59-13 59 13 41 35q23 30 34 76.5T455 324t-11 108.5-34 76.5q-17 22-41 35t-59 13-59-13-41-35q-24-30-35-76.5T164 324zm-119 0q0 65 12.5 124T103 557q32 48 83 77t124 29 123.5-29 82.5-77q33-50 45.5-109T574 324t-12.5-124T516 91q-32-48-82.5-77T310-15 186 14t-83 77q-33 50-45.5 109T45 324z"/><glyph glyph-name="one" unicode="1" horiz-adv-x="376" d="M185 0v444H28v82q70 2 115 36.5t56 85.5h104V0H185z"/><glyph glyph-name="two" unicode="2" horiz-adv-x="537" d="M42 413q-1 7-2 17t-1 20q0 42 15.5 80.5t45 68 72.5 47 98 17.5q54 0 96-16.5t71.5-44 45-64.5 15.5-79q0-63-33-114t-92-87l-126-78q-23-14-41-32t-25-42h321V0H33q1 42 9 79t26 70.5 47.5 63T187 268l107 67q44 27 63.5 57t19.5 65q0 20-7 38t-20.5 32-34 22.5T268 558q-57 0-85-34.5T155 438q0-8 1-16.5t2-16.5z"/><glyph glyph-name="three" unicode="3" horiz-adv-x="551" d="M164 383l179 160H48v105h450V548L322 394q36-1 71-14t62.5-38 44-61.5T516 197q0-42-16.5-80T452 49.5t-76-47T273-15q-56 0-100.5 17t-76 45T47 112t-21 78l117 24q1-28 11-51.5t27.5-40T222 97t50-9q30 0 52.5 9t38.5 24 24 35 8 42q0 28-10 48.5T358.5 280t-37 19-41.5 6q-23 0-38-3.5t-23-7.5z"/><glyph glyph-name="four" unicode="4" horiz-adv-x="587" d="M33 272l276 376h154V248h109V142H463V0H345v142H33v130zm312 255L141 248h204v279z"/><glyph glyph-name="five" unicode="5" horiz-adv-x="551" d="M145 208q4-52 39-86.5T276 87q25 0 47.5 8.5T363 119t26.5 37 9.5 49q0 30-10.5 52.5T361 295t-39.5 22.5T274 325q-35 0-63-12.5T166 280L53 321l80 327h355V543H214l-40-164q21 22 55 33.5t69 11.5q48 0 89-14.5t70.5-42.5 46-68 16.5-91q0-46-17-86.5t-48.5-71-77-48.5T276-16q-53 0-96.5 16t-75 43T54 105.5 32 179z"/><glyph glyph-name="six" unicode="6" horiz-adv-x="581" d="M498 533q-18 10-44.5 18t-66.5 8q-46 0-84.5-14.5T235 503t-47-65.5-22-85.5q26 39 69.5 58t95.5 19q48 0 88.5-15.5t70-44 45.5-69 16-90.5q0-51-19.5-92.5t-52.5-71T401 1t-96-16q-62 0-110 23.5T114 73t-50.5 96T46 286q0 88 26 158t72.5 118.5T255 637t139 26q45 0 81-9t57-23zM179 208q0-28 10.5-50.5t28-38 40-24T305 87t48 8.5 40.5 24 27.5 38 10 50.5-10 50.5-27.5 38.5-40.5 24-48 8q-26 0-48.5-8t-40-24-27.5-38.5-10-50.5z"/><glyph glyph-name="seven" unicode="7" horiz-adv-x="494" d="M489 543q-14-11-36.5-32.5t-50-54-56-76.5T293 279.5 249 153 223 0H99q5 68 18.5 127T150 237t41 93.5 45 76.5q53 79 117 136H5v105h484V543z"/><glyph glyph-name="eight" unicode="8" horiz-adv-x="565" d="M282 378q49 1 78 27.5t29 67.5q0 37-28.5 64.5T282 565t-78-27.5-28-64.5q0-41 29-67.5t77-27.5zm0-292q60 0 91 29.5t31 69.5-31 70-91 30q-59 0-90-30t-31-70 31-69.5T282 86zm0-101q-56 0-100 14t-75.5 39.5-48 59.5T42 173q0 56 34 98.5t86 60.5q-47 17-76 58.5T57 480q0 40 17 74t47 58 71 37.5 90 13.5 90.5-13.5T444 612t47-58 17-74q0-24-7.5-46.5T479 391t-33.5-35-42.5-24q25-9 47-24.5t38.5-36T514 226t9-53q0-41-16.5-75t-48-59.5-76-39.5T282-15z"/><glyph glyph-name="nine" unicode="9" horiz-adv-x="582" d="M88 120q19-12 51.5-21t64.5-9q51 0 90 14.5t66 41.5 42 64.5 17 83.5q-18-32-59-53.5T261 219q-44 0-84.5 14.5T105 276t-49.5 68.5T37 437q0 50 19 91.5t52 71.5 77.5 46.5T281 663t97-18 81.5-55.5T516 495t21-135q0-88-21-157.5t-62.5-118-104-74T205-15q-40 0-82.5 10T55 22zm315 321q0 27-10 49t-27.5 38-40 24.5T279 561q-25 0-47.5-8.5t-39.5-24-27-38-10-49.5q0-29 10-51t27-38 39.5-24 47.5-8q24 0 46.5 8.5t40 24 27.5 38 10 50.5z"/><glyph glyph-name="colon" unicode=":" horiz-adv-x="302" d="M71 74q0 34 23.5 57.5T152 155q33 0 57-23.5T233 74q0-33-24-56.5T152-6q-34 0-57.5 23.5T71 74zm-1 338q0 34 23.5 57.5T151 493q33 0 57-23.5t24-57.5q0-33-24-56.5T151 332q-34 0-57.5 23.5T70 412z"/><glyph glyph-name="semicolon" unicode=";" horiz-adv-x="307" d="M71 69q0 31 22.5 52t56.5 21q38 0 62-28t24-73q0-50-15-86t-38-59.5-50.5-36.5T81-157v56q16 4 31.5 13.5t27 23.5 19 30.5T166 2q-3-2-8.5-3.5T143-3q-31 0-51.5 19.5T71 69zm-1 343q0 34 23.5 57.5T151 493q33 0 57-23.5t24-57.5q0-33-24-56.5T151 332q-34 0-57.5 23.5T70 412z"/><glyph glyph-name="less" unicode="&lt;" horiz-adv-x="490" d="M35 338l422 212V439L155 292l302-148V33L35 244v94z"/><glyph glyph-name="equal" unicode="=" horiz-adv-x="598" d="M62 343v94h475v-94H62zm0-197v95h475v-95H62z"/><glyph glyph-name="greater" unicode="&gt;" horiz-adv-x="490" d="M455 244L33 33v110l304 148L33 438v112l422-212v-94z"/><glyph glyph-name="question" unicode="?" horiz-adv-x="520" d="M195 210q-1 10-1.5 18.5T193 248q0 45 18.5 82t62.5 69l46 33q25 18 36 39.5t11 47.5q0 19-6.5 37.5t-20 32.5-34 22.5T259 620q-28 0-49-10t-35.5-26-21.5-36.5-7-41.5q0-11 1.5-24t4.5-21l-113 8q-6 21-6 46 0 37 14 74.5T89.5 657t70.5 48.5 99 18.5q55 0 98-17t71.5-45 43.5-64 15-74q0-60-28-102.5T387 348l-43-30q-50-35-50-95v-5l1-8H195zM173 66q0 30 21 52t52 22q30 0 51.5-22T319 66t-21.5-51.5T246-7q-31 0-52 21.5T173 66z"/><glyph glyph-name="at" unicode="@" horiz-adv-x="826" d="M594 138q-38 0-64 16.5T496 200q-20-32-52-48t-65-16-61 12.5-48 35-31.5 54.5-11.5 70q0 49 16 91t43 73 63 48 76 17q30 0 60-15t41-46l9 48h88l-53-248q-1-4-2-10t-1-11q0-15 7.5-26.5T601 217q20 0 38.5 14t33 38.5 23 57T704 396q0 54-19.5 99t-55 77.5-85.5 51T434 642q-65 0-119.5-22.5t-95-63-63-97.5T134 332q0-64 21-118.5t60.5-94.5 97-62.5T443 34q51 0 100 15.5T636 98l45-61q-21-20-49.5-35.5t-60-26T507-41t-64-6q-88 0-161.5 27.5t-127 77-83 119.5T42 332q0 87 31 159.5t84 124 124.5 80T433 724q76 0 141.5-25T688 630.5 763.5 527 791 397q0-57-16-104t-43.5-81.5-63-54T594 138zm-90 230q0 40-19 62.5T429 453q-26 0-46-12.5t-34-32-21.5-44.5-7.5-49q0-41 18-68.5t59-27.5q23 0 42 11t33.5 31 22.5 47 9 60z"/><glyph glyph-name="A" unicode="A" horiz-adv-x="711" d="M503 178H203L137 0H10l276 709h139L701 0H570zM245 289h216L353 579z"/><glyph glyph-name="B" unicode="B" horiz-adv-x="607" d="M329 709q51 0 91-14t68-39.5 42.5-60.5 14.5-77q0-57-29.5-96.5T440 365q57-15 92-60.5T567 196q0-43-16-79t-44.5-62T437 14.5 347 0H85v709h244zm-16-300q53 0 82.5 27t29.5 72-30 72-85 27H204V409h109zm13-307q54 0 86.5 27t32.5 75q0 46-29.5 75T330 308H204V102h122z"/><glyph glyph-name="C" unicode="C" horiz-adv-x="758" d="M400-15q-72 0-136.5 25t-114 72.5-78.5 116T42 354t30 155.5 79.5 116 114 73T399 724q67 0 121-18.5t94-50 66-73.5 38-88l-113-38q-8 32-24.5 60.5t-42 49.5-60 33-79.5 12q-44 0-86-16t-75-48-53-80.5T165 354q0-62 19.5-109.5T237 165t75.5-48.5T400 100t80 13 61 35 43.5 50 26.5 58l110-36q-12-45-38-87.5t-66.5-75T522 5 400-15z"/><glyph glyph-name="D" unicode="D" horiz-adv-x="722" d="M331 110q46 0 87 15t71.5 45 48.5 75.5T556 353t-17.5 108.5-48 77T419 584t-87 15H205V110h126zM85 0v709h251q72 0 135-23.5t109.5-69 73.5-112T681 353t-27-151-74-111-110-68T335 0H85z"/><glyph glyph-name="E" unicode="E" horiz-adv-x="582" d="M85 0v709h438V597H205V409h288V300H205V112h318V0H85z"/><glyph glyph-name="F" unicode="F" horiz-adv-x="557" d="M85 0v709h441V596H205V397h288V286H205V0H85z"/><glyph glyph-name="G" unicode="G" horiz-adv-x="774" d="M617 0l-9 90q-12-20-31.5-38.5T530 18 468-6t-77-9q-69 0-132.5 25T147 82.5t-76.5 116T42 355q0 87 30 156t79.5 116 114 72T399 724q64 0 117-17.5t93.5-47 68-68.5 41.5-83l-113-43q-9 30-26.5 57T536 569t-60.5 32-76.5 12q-43 0-85-15.5T238.5 550t-54-80.5T164 355q0-65 19.5-113.5t52-81 74.5-49T398 95q54 0 91.5 16.5T551 152t36 51.5 14 50.5H367v105h347V0h-97z"/><glyph glyph-name="H" unicode="H" horiz-adv-x="744" d="M538 0v303H205V0H85v709h120V416h333v293h121V0H538z"/><glyph glyph-name="I" unicode="I" horiz-adv-x="292" d="M85 0v709h122V0H85z"/><glyph glyph-name="J" unicode="J" horiz-adv-x="547" d="M20 260l117 24v-66q0-63 31-91.5T246 98q48 0 76 30.5t28 84.5v496h120V216q0-47-16-89t-45-73.5-70-50T247-15q-52 0-94 16.5T81.5 48 36 120t-16 94v46z"/><glyph glyph-name="K" unicode="K" horiz-adv-x="685" d="M299 307l-94-103V0H85v709h120V369l305 340h158L381 396 671 0H520z"/><glyph glyph-name="L" unicode="L" horiz-adv-x="555" d="M85 0v709h120V114h325V0H85z"/><glyph glyph-name="M" unicode="M" horiz-adv-x="950" d="M746 0v522L525 0H421L202 520V0H85v709h160l230-541 227 541h163V0H746z"/><glyph glyph-name="N" unicode="N" horiz-adv-x="765" d="M555 0L205 537V0H85v709h153l322-503v503h120V0H555z"/><glyph glyph-name="O" unicode="O" horiz-adv-x="805" d="M165 355q0-64 20.5-112t53.5-80 75.5-48T402 99t88 16 76 48 53.5 80T640 355t-20.5 112-53.5 80-76 48-88 16-87.5-16-75.5-48-53.5-80T165 355zm-123 0q0 87 30 155.5t80 116T267 699t135 25 135-25 115-72.5 80.5-116T763 355t-30.5-156T652 82.5 537 10 402-15 267 10 152 82.5 72 199 42 355z"/><glyph glyph-name="P" unicode="P" horiz-adv-x="602" d="M330 383q57 0 89.5 29t32.5 80-32.5 81-89.5 30H205V383h125zM205 277V0H85v709h263q51 0 92.5-16.5t71.5-45 46-68.5 16-86q0-47-16-86.5T512 338t-71.5-45-92.5-16H205z"/><glyph glyph-name="Q" unicode="Q" horiz-adv-x="805" d="M42 355q0 87 30 155.5t80 116T267 699t135 25 135-25 115-72.5 80.5-116T763 355q0-79-25-142.5T671 102l84-94-81-69-87 95q-42-24-89-36.5T402-15q-70 0-135 25T152 82.5 72 199 42 355zm123 0q0-64 20.5-112t53.5-80 75.5-48T402 99q27 0 54 5.5t52 17.5L391 252l82 70 118-131q23 31 36 71.5t13 92.5q0 64-20.5 112T566 547t-76 48-88 16-87.5-16-75.5-48-53.5-80T165 355z"/><glyph glyph-name="R" unicode="R" horiz-adv-x="622" d="M294 280h-88V0H85v709h272q51 0 92.5-16.5t70-46 44-68.5 15.5-84q0-76-42.5-130T419 292L579 0H443zm41 106q56 0 89 29.5t33 78.5q0 50-33 79.5T335 603H206V386h129z"/><glyph glyph-name="S" unicode="S" horiz-adv-x="599" d="M443 509q-3 16-11.5 35.5t-25 35.5-41.5 27-61 11q-27 0-49.5-8.5T216 587t-25-32.5-9-38.5q0-34 20.5-58t62.5-33l102-21q94-19 143-74t49-130q0-41-16.5-80T494 51 415.5 3 308-15q-68 0-117.5 19.5t-83 51T56 126t-22 77l112 32q3-28 14-53.5t31.5-45T241 105t67-12q64 0 96.5 28t32.5 70q0 35-24.5 60.5T342 287l-100 21q-81 17-130.5 68T62 507q0 45 19 84.5t52 69 76.5 46.5 93.5 17q63 0 107-17t73.5-43.5T529 605t22-62z"/><glyph glyph-name="T" unicode="T" horiz-adv-x="607" d="M363 596V0H243v596H13v113h581V596H363z"/><glyph glyph-name="U" unicode="U" horiz-adv-x="683" d="M341-15q-56 0-104 17t-83.5 50-56 82T77 247v462h119V254q0-75 38.5-115T341 99q69 0 107 40t38 115v455h120V247q0-64-20.5-113t-56-82-84-50T341-15z"/><glyph glyph-name="V" unicode="V" horiz-adv-x="674" d="M537 709h127L396 0H274L10 709h130l198-552z"/><glyph glyph-name="W" unicode="W" horiz-adv-x="1017" d="M880 709h124L805 0H681L509 536 337 0H214L13 709h126l142-518 166 518h125l169-522z"/><glyph glyph-name="X" unicode="X" horiz-adv-x="646" d="M395 354L630 0H486L321 259 154 0H13l237 355L15 709h144l165-260 166 260h141z"/><glyph glyph-name="Y" unicode="Y" horiz-adv-x="638" d="M10 709h142l170-297 171 297h135L378 300V0H258v300z"/><glyph glyph-name="Z" unicode="Z" horiz-adv-x="636" d="M42 0v118l393 478H53v113h537V595L192 114h403V0H42z"/><glyph glyph-name="bracketleft" unicode="[" horiz-adv-x="304" d="M85-157v956h214v-90H183V-66h116v-91H85z"/><glyph glyph-name="backslash" unicode="\" horiz-adv-x="457" d="M0 714h110L457-5H348z"/><glyph glyph-name="bracketright" unicode="]" horiz-adv-x="304" d="M5-157v91h116v775H5v90h214v-956H5z"/><glyph glyph-name="asciicircum" unicode="^" horiz-adv-x="526" d="M393 352L264 596 134 352H20l196 358h94l196-358H393z"/><glyph glyph-name="underscore" unicode="_" horiz-adv-x="531" d="M10-96V0h511v-96H10z"/><glyph glyph-name="grave" unicode="`" horiz-adv-x="285" d="M29 696h139l88-148h-95z"/><glyph glyph-name="a" unicode="a" horiz-adv-x="532" d="M45 132q0 33 11.5 58t31 43.5T134 263t58 16l125 19q21 3 28.5 12.5T353 333q0 31-22 52.5T261 407q-46 0-71-25.5T161 319L55 343q3 31 19 60t42 51 62.5 35 81.5 13q56 0 95.5-15t64-40 36-58 11.5-69V78q0-33 2.5-53.5T473 0H365q-1 2-3 17.5T360 62q-17-28-54-52.5T210-15q-38 0-68.5 12t-52 32.5-33 47T45 132zm187-56q24 0 46 6.5t38.5 21T343 142t10 60v22l-127-19q-27-5-46-20.5T161 139q0-25 18-44t53-19z"/><glyph glyph-name="b" unicode="b" horiz-adv-x="604" d="M75 0v724h114V427q17 29 56.5 51t96.5 22q55 0 97-19.5t70.5-54 43-80.5T567 246q0-55-16-102.5t-45.5-82-72-54T338-12q-52 0-90.5 21T188 65V0H75zm375 245q0 73-36.5 112.5T319 397q-56 0-93.5-39.5T188 245q0-36 10-64.5t27.5-48.5 41.5-30.5T319 91q57 0 94 41t37 113z"/><glyph glyph-name="c" unicode="c" horiz-adv-x="541" d="M287 395q-27 0-51-10t-42.5-29-29.5-47-11-65 11-65.5 29.5-48T237 101t52-10q28 0 49.5 9t36 22.5 23.5 29 13 29.5l102-37q-9-29-27-57t-45.5-51T375-1t-86-14q-54 0-100 19.5T109.5 59t-53 82T37 244t19 103.5 53 82 79 53.5 98 19q49 0 87-14t66-36.5 45-51.5 25-58l-104-38q-4 16-12.5 32.5t-23 29.5-34.5 21-48 8z"/><glyph glyph-name="d" unicode="d" horiz-adv-x="602" d="M153 245q0-70 35.5-112.5T284 90q28 0 52 11.5t41 32 26.5 49T413 246q0 70-35.5 110.5T285 397t-94.5-41T153 245zM525 89q0-33 2-58t3-31H419q-2 8-3.5 28T414 63q-17-31-54-53t-89-22q-53 0-96 19.5t-73.5 54T54 143 37 245q0 52 17 98.5t47.5 81.5 73.5 55 94 20q32 0 56-6.5t41.5-17T395 454t17-24v294h113V89z"/><glyph glyph-name="e" unicode="e" horiz-adv-x="548" d="M395 297q-1 21-8.5 40.5T364 372t-37 24-52 9q-27 0-48.5-9.5t-36.5-25-24-35-10-38.5h239zm111-158q-10-32-29-60t-47-49-64-33-80-12q-50 0-95 17.5t-79 51-54.5 82T37 246q0 58 19.5 105t52.5 80.5 76 52 89 18.5q56 0 100.5-18t75-51 46.5-79.5T512 249q0-14-1-24.5t-2-12.5H153q1-28 12-51t29-40 41.5-26.5T286 85q53 0 81.5 24.5T408 170z"/><glyph glyph-name="f" unicode="f" horiz-adv-x="350" d="M291 625q-12 0-24.5-3t-23-11.5-17.5-23-7-36.5v-64h113V386H219V0H102v386H17v101h85v67q0 41 12.5 73.5t35 55T203 717t69 12q22 0 38.5-3.5T333 719v-99q-5 2-15 3.5t-27 1.5z"/><glyph glyph-name="g" unicode="g" horiz-adv-x="589" d="M147 1q6-45 38.5-75t83.5-30q138 0 138 146v51q-16-29-51.5-50T266 22q-49 0-90 18t-71 49.5-47 75T41 259q0 49 16.5 92t46 75 71 51 91.5 19q57 0 92.5-20.5T410 425v62h112V46q0-49-13.5-94t-43-80-77-56T272-205q-48 0-88.5 14t-71 38-49 56.5T40-27zm138 120q56 0 90.5 37.5T410 259q0 31-9.5 56.5t-26 43.5-39.5 27.5-50 9.5q-56 0-91.5-37T158 259q0-64 35-101t92-37z"/><glyph glyph-name="h" unicode="h" horiz-adv-x="574" d="M191 0H75v724h116V440q25 32 63 46.5t76 14.5q45 0 78.5-15t55.5-41.5 33-61.5 11-75V0H392v288q0 45-22.5 76.5T292 396q-48 0-73.5-31.5T191 286V0z"/><glyph glyph-name="i" unicode="i" horiz-adv-x="265" d="M75 0v487h115V0H75zM57 658q0 32 22 54t53 22q32 0 54-22t22-54-22-53.5-54-21.5q-31 0-53 21.5T57 658z"/><glyph glyph-name="j" unicode="j" horiz-adv-x="266" d="M75 487h116V-49q0-34-10-62.5T152-161t-45.5-32.5T46-205q-29 0-45.5 3.5T-20-196v96q4-1 14.5-2t20.5-1q33 0 46.5 16.5T75-40v527zM57 659q0 32 22 54t53 22q32 0 54-22t22-54q0-31-22-53t-54-22q-31 0-53 22t-22 53z"/><glyph glyph-name="k" unicode="k" horiz-adv-x="544" d="M331 281L535 0H393L250 199l-60-63V0H75v724h115V290l187 197h154z"/><glyph glyph-name="l" unicode="l" horiz-adv-x="266" d="M75 0v724h116V0H75z"/><glyph glyph-name="m" unicode="m" horiz-adv-x="873" d="M75 0v487h111v-62q21 37 62 56.5t82 19.5q48 0 87-21.5t59-64.5q29 48 69.5 67t88.5 19q33 0 64-11t55-33.5 38.5-57.5 14.5-83V0H694v297q0 43-22.5 71.5T600 397q-46 0-73.5-31.5T499 289V0H385v297q0 42-22 71t-72 29q-47 0-74-30.5T190 289V0H75z"/><glyph glyph-name="n" unicode="n" horiz-adv-x="574" d="M191 0H75v487h113v-65q24 42 63.5 60.5T332 501q45 0 78-15t54.5-41.5T497 383t11-75V0H392v288q0 45-22.5 76.5T292 396q-50 0-75.5-33.5T191 281V0z"/><glyph glyph-name="o" unicode="o" horiz-adv-x="579" d="M289 89q27 0 51.5 10t43.5 29.5 30 48.5 11 67-11 66.5-30 48-43.5 29T289 397t-51.5-9.5-43-29-30-48T153 244t11.5-67 30-48.5 43-29.5T289 89zm0 413q55 0 101-19.5t80-54 53-81.5 19-103-19-103.5-53-82-80-54T289-15q-54 0-100.5 19.5t-80 54-52.5 82T37 244t19 103 52.5 81.5 80 54T289 502z"/><glyph glyph-name="p" unicode="p" horiz-adv-x="604" d="M75-190v677h112v-66q18 32 58 54.5t97 22.5q54 0 96-19.5t70.5-53.5 43.5-80.5T567 244q0-55-16-101.5t-46-81-72.5-54T338-12q-53 0-91 19.5T190 55v-245H75zm376 434q0 69-36 110t-95 41q-29 0-53-11t-41-30.5-27-47.5-10-62q0-70 37-111.5T320 91q58 0 94.5 41.5T451 244z"/><glyph glyph-name="q" unicode="q" horiz-adv-x="596" d="M414-190V58q-18-32-55-51t-88-19q-52 0-95 20t-74 54.5T54 144 37 245q0 52 16 98.5t46 81 73 54.5 96 20q32 0 57-7t43-18.5 30.5-25T417 422v65h111v-677H414zM154 245q0-35 9.5-63.5t27-49 41-31.5T284 90q28 0 52.5 11t41.5 31.5 27 49 10 63.5q0 70-37 110.5T284 396q-58 0-94-40.5T154 245z"/><glyph glyph-name="r" unicode="r" horiz-adv-x="380" d="M360 372q-20 3-38 3-68 0-99.5-37T191 232V0H75v487h113v-78q17 40 55 62t86 22q11 0 19-1t12-2V372z"/><glyph glyph-name="s" unicode="s" horiz-adv-x="457" d="M133 160q3-33 27.5-58T232 77q36 0 54.5 16.5T305 133q0 20-14 34t-43 20l-72 16q-65 14-98 52.5T45 345q0 32 14 60.5t38 50 56.5 34T224 502q51 0 85.5-14.5T366 452t32.5-44.5T412 366l-98-28q-2 10-7 23t-15.5 24-27 18.5T224 411q-31 0-50.5-16.5T154 355q0-20 13-33t36-18l74-15q69-15 104.5-54.5T417 141q0-28-11.5-55.5t-34-50T314-1t-81-14q-53 0-90 15T82 37.5t-36 48T32 132z"/><glyph glyph-name="t" unicode="t" horiz-adv-x="365" d="M222 487h101V384H222V158q0-32 15-46.5T284 97q12 0 24 1.5t16 2.5V5q-5-2-22-6.5T253-6q-68 0-107 38t-39 107v245H17v103h25q39 0 57 22t18 54v73h105V487z"/><glyph glyph-name="u" unicode="u" horiz-adv-x="577" d="M392 54q-18-33-56.5-50.5T254-14q-44 0-78 15t-57.5 41.5-36 61.5T70 180v307h116V201q0-23 5.5-43t17.5-35 30.5-24 44.5-9q51 0 76.5 30.5T386 199v288h116V89q0-30 1.5-52.5T507 0H396q-2 8-3 23.5T392 54z"/><glyph glyph-name="v" unicode="v" horiz-adv-x="525" d="M324 0H208L10 487h128l129-348 126 348h122z"/><glyph glyph-name="w" unicode="w" horiz-adv-x="814" d="M471 487l115-337 97 337h118L645 0H529L408 350 290 0H171L13 487h124l99-337 115 337h120z"/><glyph glyph-name="x" unicode="x" horiz-adv-x="513" d="M188 246L14 487h138q2-4 10.5-16t19.5-28 23.5-34.5T229 374t19.5-28 10.5-15l106 156h132L326 248 503 0H367L254 163q-3-4-11-16.5t-19.5-29-24.5-36-24.5-36-20-29T144 0H11z"/><glyph glyph-name="y" unicode="y" horiz-adv-x="543" d="M99-197L216 58 8 487h131l140-308 131 308h123L223-197H99z"/><glyph glyph-name="z" unicode="z" horiz-adv-x="474" d="M38 0v101l247 284H43v102h388v-98L181 102h255V0H38z"/><glyph glyph-name="braceleft" unicode="{" horiz-adv-x="365" d="M45 373q21 0 40.5 5t33.5 16.5 22.5 30T150 469v140q0 97 49 143.5T337 799h23v-89h-22q-45 0-67.5-22.5T248 613V447q0-49-27-81t-75-43q48-11 75-43.5t27-81.5V32q0-52 22.5-74T338-64h22v-89h-23q-89 0-138 46.5T150 37v139q0 53-31 75t-74 22v100z"/><glyph glyph-name="bar" unicode="|" horiz-adv-x="268" d="M85-153v952h98v-952H85z"/><glyph glyph-name="braceright" unicode="}" horiz-adv-x="365" d="M320 273q-43 0-74-22t-31-75V37q0-97-49-143.5T28-153H5v89h22q45 0 67.5 22T117 32v166q0 49 27 81.5t75 43.5q-48 11-75 43t-27 81v166q0 52-22.5 74.5T27 710H5v89h23q89 0 138-46.5T215 609V469q0-26 8.5-44.5t22.5-30 33.5-16.5 40.5-5V273z"/><glyph glyph-name="asciitilde" unicode="~" horiz-adv-x="577" d="M240 261q-28 14-52 14-26 0-49.5-14T96 221l-66 53q28 49 69.5 74.5T189 374q25 0 50-6.5t51-20.5l46-25q27-15 55-15 26 0 49.5 13.5T481 360l66-53q-28-49-69-74t-89-25q-50 0-102 28z"/><glyph glyph-name="uni00A0" horiz-adv-x="248"/><glyph glyph-name="exclamdown" unicode="¡" horiz-adv-x="291" d="M216-213H74l30 498h83zM72 429q0 30 21.5 51.5T145 502t52-21.5 22-51.5q0-31-22-52t-52-21-51.5 21T72 429z"/><glyph glyph-name="cent" unicode="¢" horiz-adv-x="546" d="M234 0v90q-41 8-76 29t-60 52-39 70-14 84 14 84.5 39.5 70 60 51T234 559v90h91v-88q37-6 66-20.5t50.5-34 35.5-43 20-47.5l-100-35q-6 23-23 45.5T325 459V188q35 10 53.5 34t24.5 45l98-35q-8-24-22.5-47.5t-36-43.5-51-34.5T325 87V0h-91zm-80 325q0-51 22.5-84.5T234 193v262q-35-14-57.5-46.5T154 325z"/><glyph glyph-name="sterling" unicode="£" horiz-adv-x="593" d="M131 368q-10 23-16.5 48t-6.5 57q0 39 15 73.5t42 60.5 65 41 84 15q58 0 98-17t64-44 35-59.5 12-62.5l-110-18q-1 50-27 75.5T316 563q-36 0-64.5-23T223 471q0-28 8-53t19-50h188v-95H279q1-6 1.5-12t.5-12q0-46-20.5-84.5T198 103h177q44 0 66 28t22 66l108-12q0-40-12-74t-34.5-58.5T470 14 398 0H62v104q50 19 78.5 54.5T169 237q0 9-1 18t-3 18H67v95h64z"/><glyph glyph-name="currency" unicode="¤" horiz-adv-x="585" d="M80 242q0 32 8.5 60.5T113 356l-74 75 72 71 74-76q24 14 52 22t58 8q58 0 106-28l73 74 71-71-70-72q17-25 26-55t9-62-9-61.5-25-54.5l69-70-70-70-71 72q-49-29-109-29-61 0-112 31l-73-74-71 70 73 74q-32 49-32 112zm99 0q0-26 9-47t24.5-37 36.5-24.5 46-8.5 46 8.5 36.5 24.5 24 37 8.5 47q0 25-8.5 46.5t-24 37.5-36.5 24.5-46 8.5-46-8.5-36.5-24.5-24.5-37.5-9-46.5z"/><glyph glyph-name="yen" unicode="¥" horiz-adv-x="600" d="M361 144V0H245v144H74v84h171v74H74v84h111L23 648h135l146-251 142 251h130L418 386h117v-84H361v-74h174v-84H361z"/><glyph glyph-name="brokenbar" unicode="¦" horiz-adv-x="268" d="M183 799V400H85v399h98zm0-554v-399H85v399h98z"/><glyph glyph-name="section" unicode="§" horiz-adv-x="566" d="M488 246q0-23-7-42.5T462.5 168 437 140t-29-19q40-28 61-65.5T490-23q0-43-17.5-78T426-160.5t-66.5-38T281-212q-48 0-86 13.5T131-160t-40 59-15 76L185-5q0-51 24.5-80t72.5-29q40 0 65 21.5T372-33q0 23-13.5 42.5T322 41L219 94q-28 14-53.5 30T121 160.5 90.5 207 79 267q0 23 7 42.5t18.5 35.5 25.5 27.5 29 19.5q-41 28-61.5 65T77 536q0 43 17.5 78t46.5 59.5 66.5 37.5 78.5 13q48 0 86-14t64-39 40-59 15-74l-110-20q0 52-25 80t-71 28q-41 0-66-22.5T194 545q0-47 51-73l102-53q28-14 53.5-30.5t45-36.5 31-46 11.5-60zM225 355q-17-11-27.5-28.5T187 288q0-24 11.5-42.5T239 212l101-54q17 11 28 28t11 39q0 24-11.5 42T327 301z"/><glyph glyph-name="dieresis" unicode="¨" horiz-adv-x="393" d="M32 625q0 27 18.5 46T96 690q28 0 47-19t19-46q0-28-19-46.5T96 560q-27 0-45.5 18.5T32 625zm200 0q0 27 18.5 46t45.5 19 46-19 19-46q0-28-19-46.5T296 560t-45.5 18.5T232 625z"/><glyph glyph-name="copyright" unicode="©" horiz-adv-x="818" d="M124 355q0-62 22-116t60-93.5 90-62T408 61t111.5 22.5 90 62T670 239t22 116-22 115.5-60.5 93-90 62T408 648t-112-22.5-90-62-60-93T124 355zm-82 0q0 76 28.5 143t78 117.5T265 695t143 29 143-29 117-79.5T747 498t29-143q0-77-29-144T668 93.5 551 14 408-15 265 14 148.5 93.5 70.5 211 42 355zm370 118q-22 0-40.5-7.5t-33-22.5-23.5-37-9-51 9-51.5 23.5-38 34-23T413 235q22 0 39 7t28.5 17.5T499 282t10 23l80-29q-7-23-21-45t-35.5-40-51.5-29-68-11q-42 0-78.5 15.5t-62.5 43-41.5 64.5-15.5 81 15 81 41.5 64.5 62 42.5 77.5 15q38 0 68-11t52-29 35.5-40.5T586 432l-82-30q-3 13-9.5 25.5t-18 23-27 16.5-37.5 6z"/><glyph glyph-name="ordfeminine" unicode="ª" horiz-adv-x="425" d="M59 399q0 46 30 71.5t73 31.5l86 13q14 2 20 9t6 15q0 20-15 33.5T213 586q-30 0-47-17t-19-40l-81 17q2 21 12.5 41.5t29.5 36 45 25.5 60 10q40 0 68.5-10.5t46-28.5 25.5-41.5 8-49.5V360q0-21 1.5-36.5T365 305h-82q-1 2-2.5 13.5T279 347q-13-20-38-36t-64-16q-27 0-49 8.5t-37.5 23-23.5 33-8 39.5zm137-36q15 0 29 4t25 13.5 17.5 25.5 6.5 39v15l-82-12q-18-3-30.5-13.5T149 404q0-16 11.5-28.5T196 363z"/><glyph glyph-name="guillemotleft" unicode="«" horiz-adv-x="500" d="M163 100L28 293l136 194h111L141 292l133-192H163zm207 0L235 293l136 194h111L348 292l133-192H370z"/><glyph glyph-name="logicalnot" unicode="¬" horiz-adv-x="583" d="M422 142v195H45v97h478V142H422z"/><glyph glyph-name="uni00AD" unicode="­" horiz-adv-x="372" d="M45 241v103h282V241H45z"/><glyph glyph-name="registered" unicode="®" horiz-adv-x="818" d="M42 355q0 76 28.5 143t78 117.5T265 695t143 29 143-29 117-79.5T747 498t29-143q0-77-29-144T668 93.5 551 14 408-15 265 14 148.5 93.5 70.5 211 42 355zm82 0q0-62 22-116t60-93.5 90-62T408 61t111.5 22.5 90 62T670 239t22 116-22 115.5-60.5 93-90 62T408 648t-112-22.5-90-62-60-93T124 355zm271-54h-29V157h-86v401h149q29 0 54-10t43.5-27.5 29-40.5 10.5-50q0-42-22.5-73T484 312l85-155h-98zm20 73q30 0 46.5 14.5T478 429t-16.5 41-46.5 15h-49V374h49z"/><glyph glyph-name="macron" unicode="¯" horiz-adv-x="338" d="M30 577v90h278v-90H30z"/><glyph glyph-name="degree" unicode="°" horiz-adv-x="372" d="M115 500q0-32 20.5-53t50.5-21 50 21 20 53-20 52.5-50 20.5-50.5-20.5T115 500zm-93 0q0 34 13 63t35.5 51 52.5 34.5 63 12.5 62.5-12.5 52-34.5 36-51 13.5-63-13.5-63.5-36-51T248 352t-63-12-62.5 12.5-52 34T35 437t-13 63z"/><glyph glyph-name="plusminus" unicode="±" horiz-adv-x="581" d="M241 405v129h99V405h178v-94H340V183h-99v128H63v94h178zm277-262V47H63v96h455z"/><glyph glyph-name="twosuperior" unicode="²" horiz-adv-x="392" d="M62 566q-3 15-3 30 0 24 9 46t26.5 38.5T138 707t59 10 58.5-9.5 43-26 26.5-38 9-45.5q0-35-20-62.5T259 487l-71-43q-17-12-20-25h169v-76H56v12q0 48 19.5 85.5T143 507l60 36q41 24 41 56 0 17-12 30.5T195 643q-24 0-38-14.5T143 591q0-4 .5-11t2.5-13z"/><glyph glyph-name="threesuperior" unicode="³" horiz-adv-x="412" d="M135 468q4-25 22.5-41.5T204 410t44.5 14.5T265 459q0 28-19 39.5T204 510q-16 0-31-6l-32 61 91 69H68v75h279v-72l-94-69q45-5 74-33t29-77q0-25-10.5-47.5t-30-39T268 345t-63-10q-33 0-59.5 9.5t-45 24.5-30 34.5T55 444z"/><glyph glyph-name="acute" unicode="´" horiz-adv-x="286" d="M125 548H30l89 148h137z"/><glyph glyph-name="mu" unicode="µ" horiz-adv-x="584" d="M397 54q-18-33-56.5-50.5T259-14q-38 0-68 12v-188H75v677h116V201q0-23 5.5-43t17.5-35 30.5-24 44.5-9q51 0 76.5 30.5T391 199v288h116V89q0-23 1.5-46T512 0H401q-2 8-3 23.5T397 54z"/><glyph glyph-name="paragraph" unicode="¶" horiz-adv-x="648" d="M341-197h-95v507h-17q-41 0-77 15t-63 41-43 62-16 77q0 49 18.5 87.5t50 64 74 39T262 709h366v-93h-97v-813h-95v813h-95v-813z"/><glyph glyph-name="periodcentered" unicode="·" horiz-adv-x="284" d="M65 298q0 32 23 55t55 23q33 0 56-23t23-55q0-33-23-55t-56-22q-32 0-55 22t-23 55z"/><glyph glyph-name="cedilla" unicode="¸" horiz-adv-x="296" d="M82-62l48 75h78l-39-60q43-1 70-23.5t27-60.5q0-18-7-34.5t-21.5-29-38-20.5-56.5-8q-40 0-70.5 15T28-175l41 50q10-10 28.5-22.5T142-160q18 0 31 7t13 23q0 12-10.5 21t-30.5 9q-15 0-28-5z"/><glyph glyph-name="onesuperior" unicode="¹" horiz-adv-x="298" d="M132 343v233H43v60q43 1 68 23.5t30 49.5h82V343h-91z"/><glyph glyph-name="ordmasculine" unicode="º" horiz-adv-x="483" d="M242 376q35 0 62 25t27 76-27 75.5-62 24.5-62-24.5-27-75.5q0-50 27-75.5t62-25.5zm0 283q39 0 72-13.5t57-37.5 37.5-57.5T422 477t-13.5-73.5T371 346t-57-37.5-72-13.5-72 13.5-57 37.5-37.5 57.5T62 477t13.5 73.5T113 608t57 37.5 72 13.5z"/><glyph glyph-name="guillemotright" unicode="»" horiz-adv-x="500" d="M226 100l133 192-134 195h111l136-194-135-193H226zm-207 0l133 192L18 487h111l136-194-135-193H19z"/><glyph glyph-name="onequarter" unicode="¼" horiz-adv-x="796" d="M139 282v233H50v60q43 1 68 23.5t30 49.5h82V282h-91zm278-122l172 207h99V145h62V72h-62V1h-90v71H417v88zm181 110L495 145h103v125zM90 0l462 648h104L195 0H90z"/><glyph glyph-name="onehalf" unicode="½" horiz-adv-x="805" d="M139 282v233H50v60q43 1 68 23.5t30 49.5h82V282h-91zM89 0l462 648h104L194 0H89zm394 224q-3 15-3 30 0 24 9 46t26.5 38.5T559 365t59 10 58.5-9.5 43-26 26.5-38 9-45.5q0-35-20-62.5T680 145l-71-43q-17-12-20-25h169V1H477v12q0 48 19.5 85.5T564 165l60 36q41 24 41 56 0 17-12 30.5T616 301q-24 0-38-14.5T564 249q0-4 .5-11t2.5-13z"/><glyph glyph-name="threequarters" unicode="¾" horiz-adv-x="869" d="M133 407q4-25 22.5-41.5T202 349t44.5 14.5T263 398q0 28-19 39.5T202 449q-16 0-31-6l-32 61 91 69H66v75h279v-72l-94-69q45-5 74-33t29-77q0-25-10.5-47.5t-30-39T266 284t-63-10q-33 0-59.5 9.5t-45 24.5-30 34.5T53 383zm358-247l172 207h99V145h62V72h-62V1h-90v71H491v88zm181 110L569 145h103v125zM175 0l462 648h104L280 0H175z"/><glyph glyph-name="questiondown" unicode="¿" horiz-adv-x="487" d="M307 286q3-18 3-38 0-45-18-82t-62-68l-46-33q-25-18-36-40t-11-48q0-39 26.5-69.5T245-123q29 0 50 10t35 26.5 20.5 37T357-7q0 11-1.5 23.5T351 38l114-12q3-11 4-22.5t1-23.5q0-38-14-75t-42-66.5-70-48-99-18.5q-56 0-98.5 17T75-166t-43.5 64T17-28q0 60 27.5 102.5T116 148l43 30q24 17 36.5 42.5T208 276v10h99zM184 429q0 30 21 51.5t52 21.5q30 0 51.5-21.5T330 429t-21.5-51.5T257 356q-31 0-52 21.5T184 429z"/><glyph glyph-name="Agrave" unicode="À" horiz-adv-x="711" d="M503 178H203L137 0H10l276 709h139L701 0H570zM245 289h216L353 579zm-82 594h148l103-124H306z"/><glyph glyph-name="Aacute" unicode="Á" horiz-adv-x="711" d="M503 178H203L137 0H10l276 709h139L701 0H570zM245 289h216L353 579zm159 470H295l102 124h149z"/><glyph glyph-name="Acircumflex" unicode="Â" horiz-adv-x="711" d="M503 178H203L137 0H10l276 709h139L701 0H570zM245 289h216L353 579zm-74 470l116 124h129l119-124H425l-75 64-72-64H171z"/><glyph glyph-name="Atilde" unicode="Ã" horiz-adv-x="711" d="M503 178H203L137 0H10l276 709h139L701 0H570zM245 289h216L353 579zm272 574q0-55-28.5-82.5T418 753q-22 0-40 7t-33 16l-10 7q-12 8-23 12.5t-22 4.5-20.5-8-9.5-25v-10h-75v22q0 56 29 83t71 27q22 0 40.5-7t33.5-16l10-6q12-7 22.5-12t20.5-5q13 0 22 7.5t9 25.5v10h74v-23z"/><glyph glyph-name="Adieresis" unicode="Ä" horiz-adv-x="711" d="M134 821q0 28 19 47.5t47 19.5q29 0 48-19.5t19-47.5-19-47-48-19q-28 0-47 19t-19 47zm307 0q0 28 18.5 47.5T506 888q29 0 48-19.5t19-47.5-19-47-48-19q-28 0-46.5 19T441 821zm62-643H203L137 0H10l276 709h139L701 0H570zM245 289h216L353 579z"/><glyph glyph-name="Aring" unicode="Å" horiz-adv-x="711" d="M245 289h216L353 579zm108 420q21 0 35.5 13.5T403 759q0 22-14.5 35.5T353 808t-35.5-13.5T303 759q0-23 14.5-36.5T353 709zm130 50q0-29-11-52.5T441 666L701 0H570l-67 178H203L137 0H10l258 663q-20 17-32 42t-12 54q0 27 10.5 50t28 40 41 26.5T353 885t49.5-9.5T444 849t28.5-40 10.5-50z"/><glyph glyph-name="AE" unicode="Æ" horiz-adv-x="1044" d="M548 0v180H271L156 0H7l470 709h509V597H668V409h288V300H668V112h318V0H548zm0 283v328L337 283h211z"/><glyph glyph-name="Ccedilla" unicode="Ç" horiz-adv-x="758" d="M335-62l31 49q-66 6-125 33.5T137.5 95t-70 112.5T42 354q0 87 30 155.5t79.5 116 114 73T399 724q67 0 121-18.5t94-50 66-73.5 38-88l-113-38q-8 32-24.5 60.5t-42 49.5-60 33-79.5 12q-44 0-86-16t-75-48-53-80.5T165 354q0-62 19.5-109.5T237 165t75.5-48.5T400 100t80 13 61 35 43.5 50 26.5 58l110-36q-11-41-34-80.5t-58-71-81-53T444-12l-22-35q43-1 70-23.5t27-60.5q0-18-7-34.5t-21.5-29-38-20.5-56.5-8q-40 0-70.5 15T281-175l41 50q10-10 28.5-22.5T395-160q18 0 31 7t13 23q0 12-10.5 21t-30.5 9q-15 0-28-5z"/><glyph glyph-name="Egrave" unicode="È" horiz-adv-x="582" d="M137 883h148l103-124H280zM85 0v709h438V597H205V409h288V300H205V112h318V0H85z"/><glyph glyph-name="Eacute" unicode="É" horiz-adv-x="582" d="M332 759H223l102 124h149zM85 0v709h438V597H205V409h288V300H205V112h318V0H85z"/><glyph glyph-name="Ecircumflex" unicode="Ê" horiz-adv-x="582" d="M121 759l116 124h129l119-124H375l-75 64-72-64H121zM85 0v709h438V597H205V409h288V300H205V112h318V0H85z"/><glyph glyph-name="Edieresis" unicode="Ë" horiz-adv-x="582" d="M125 821q0 28 19 47.5t47 19.5 47.5-19.5T258 821t-19.5-47-47.5-19-47 19-19 47zm228 0q0 28 18.5 47.5T419 888q28 0 47-19.5t19-47.5-19-47-47-19q-29 0-47.5 19T353 821zM85 0v709h438V597H205V409h288V300H205V112h318V0H85z"/><glyph glyph-name="Igrave" unicode="Ì" horiz-adv-x="292" d="M85 0v709h122V0H85zM-46 883h148l103-124H97z"/><glyph glyph-name="Iacute" unicode="Í" horiz-adv-x="292" d="M85 0v709h122V0H85zm112 759H88l102 124h149z"/><glyph glyph-name="Icircumflex" unicode="Î" horiz-adv-x="292" d="M85 0v709h122V0H85zM-30 759L86 883h129l119-124H224l-75 64-72-64H-30z"/><glyph glyph-name="Idieresis" unicode="Ï" horiz-adv-x="292" d="M85 0v709h122V0H85zM1 821q0 26 17.5 44T62 883t44.5-18 18.5-44-18.5-44T62 759t-43.5 18T1 821zm170 0q0 26 18 44t44 18 44-18 18-44-18-44-44-18-44 18-18 44z"/><glyph glyph-name="Eth" unicode="Ð" horiz-adv-x="740" d="M99 0v319H17v93h82v297h251q72 0 135-23.5t109.5-69 73.5-112T695 353t-27-151-74-111-110-68T349 0H99zm246 110q46 0 87 15t71.5 45 48.5 75.5T570 353t-17.5 108.5-48 77T433 584t-87 15H219V412h131v-93H219V110h126z"/><glyph glyph-name="Ntilde" unicode="Ñ" horiz-adv-x="765" d="M550 863q0-55-28.5-82.5T451 753q-22 0-40 7t-33 16l-10 7q-12 8-23 12.5t-22 4.5-20.5-8-9.5-25v-10h-75v22q0 56 29 83t71 27q22 0 40.5-7t33.5-16l10-6q12-7 22.5-12t20.5-5q13 0 22 7.5t9 25.5v10h74v-23zm5-863L205 537V0H85v709h153l322-503v503h120V0H555z"/><glyph glyph-name="Ograve" unicode="Ò" horiz-adv-x="805" d="M210 883h148l103-124H353zm-45-528q0-64 20.5-112t53.5-80 75.5-48T402 99t88 16 76 48 53.5 80T640 355t-20.5 112-53.5 80-76 48-88 16-87.5-16-75.5-48-53.5-80T165 355zm-123 0q0 87 30 155.5t80 116T267 699t135 25 135-25 115-72.5 80.5-116T763 355t-30.5-156T652 82.5 537 10 402-15 267 10 152 82.5 72 199 42 355z"/><glyph glyph-name="Oacute" unicode="Ó" horiz-adv-x="805" d="M448 759H339l102 124h149zM165 355q0-64 20.5-112t53.5-80 75.5-48T402 99t88 16 76 48 53.5 80T640 355t-20.5 112-53.5 80-76 48-88 16-87.5-16-75.5-48-53.5-80T165 355zm-123 0q0 87 30 155.5t80 116T267 699t135 25 135-25 115-72.5 80.5-116T763 355t-30.5-156T652 82.5 537 10 402-15 267 10 152 82.5 72 199 42 355z"/><glyph glyph-name="Ocircumflex" unicode="Ô" horiz-adv-x="805" d="M221 759l116 124h129l119-124H475l-75 64-72-64H221zm-56-404q0-64 20.5-112t53.5-80 75.5-48T402 99t88 16 76 48 53.5 80T640 355t-20.5 112-53.5 80-76 48-88 16-87.5-16-75.5-48-53.5-80T165 355zm-123 0q0 87 30 155.5t80 116T267 699t135 25 135-25 115-72.5 80.5-116T763 355t-30.5-156T652 82.5 537 10 402-15 267 10 152 82.5 72 199 42 355z"/><glyph glyph-name="Otilde" unicode="Õ" horiz-adv-x="805" d="M569 864q0-55-28.5-82.5T470 754q-22 0-40 7t-33 16l-10 7q-12 8-23 12.5t-22 4.5-20.5-8-9.5-25v-10h-75v22q0 56 29 83t71 27q22 0 40.5-7t33.5-16l10-6q12-7 22.5-12t20.5-5q13 0 22 7.5t9 25.5v10h74v-23zM165 355q0-64 20.5-112t53.5-80 75.5-48T402 99t88 16 76 48 53.5 80T640 355t-20.5 112-53.5 80-76 48-88 16-87.5-16-75.5-48-53.5-80T165 355zm-123 0q0 87 30 155.5t80 116T267 699t135 25 135-25 115-72.5 80.5-116T763 355t-30.5-156T652 82.5 537 10 402-15 267 10 152 82.5 72 199 42 355z"/><glyph glyph-name="Odieresis" unicode="Ö" horiz-adv-x="805" d="M175 821q0 28 19 47.5t47 19.5 47.5-19.5T308 821t-19.5-47-47.5-19-47 19-19 47zm323 0q0 28 19 47.5t47 19.5 47.5-19.5T631 821t-19.5-47-47.5-19-47 19-19 47zM165 355q0-64 20.5-112t53.5-80 75.5-48T402 99t88 16 76 48 53.5 80T640 355t-20.5 112-53.5 80-76 48-88 16-87.5-16-75.5-48-53.5-80T165 355zm-123 0q0 87 30 155.5t80 116T267 699t135 25 135-25 115-72.5 80.5-116T763 355t-30.5-156T652 82.5 537 10 402-15 267 10 152 82.5 72 199 42 355z"/><glyph glyph-name="multiply" unicode="×" horiz-adv-x="548" d="M274 222L107 51l-69 69 168 172L39 463l69 69 166-171 166 171 69-69-167-171 168-172-69-69z"/><glyph glyph-name="Oslash" unicode="Ø" horiz-adv-x="805" d="M42 355q0 87 30 155.5t80 116T267 699t135 25q50 0 97-13t89-37l71 91 78-60-72-92q45-48 71.5-112.5T763 355q0-87-30.5-156T652 82.5 537 10 402-15q-49 0-96 12t-89 36l-68-88L69 4l71 91q-45 48-71.5 113T42 355zm123 0q0-52 13-92.5t36-71.5l303 391q-53 29-115 29-45 0-87.5-16T239 547t-53.5-80T165 355zm475 0q0 51-13 91t-35 71L289 126q52-27 113-27 45 0 88 16t76 48 53.5 80T640 355z"/><glyph glyph-name="Ugrave" unicode="Ù" horiz-adv-x="683" d="M164 883h148l103-124H307zM341-15q-56 0-104 17t-83.5 50-56 82T77 247v462h119V254q0-75 38.5-115T341 99q69 0 107 40t38 115v455h120V247q0-64-20.5-113t-56-82-84-50T341-15z"/><glyph glyph-name="Uacute" unicode="Ú" horiz-adv-x="683" d="M371 759H262l102 124h149zM341-15q-56 0-104 17t-83.5 50-56 82T77 247v462h119V254q0-75 38.5-115T341 99q69 0 107 40t38 115v455h120V247q0-64-20.5-113t-56-82-84-50T341-15z"/><glyph glyph-name="Ucircumflex" unicode="Û" horiz-adv-x="683" d="M160 759l116 124h129l119-124H414l-75 64-72-64H160zM341-15q-56 0-104 17t-83.5 50-56 82T77 247v462h119V254q0-75 38.5-115T341 99q69 0 107 40t38 115v455h120V247q0-64-20.5-113t-56-82-84-50T341-15z"/><glyph glyph-name="Udieresis" unicode="Ü" horiz-adv-x="683" d="M158 821q0 28 18.5 47.5T224 888q28 0 47-19.5t19-47.5-19-47-47-19q-29 0-47.5 19T158 821zm236 0q0 28 18.5 47.5T460 888q28 0 47-19.5t19-47.5-19-47-47-19q-29 0-47.5 19T394 821zM341-15q-56 0-104 17t-83.5 50-56 82T77 247v462h119V254q0-75 38.5-115T341 99q69 0 107 40t38 115v455h120V247q0-64-20.5-113t-56-82-84-50T341-15z"/><glyph glyph-name="Yacute" unicode="Ý" horiz-adv-x="638" d="M10 709h142l170-297 171 297h135L378 300V0H258v300zm342 50H243l102 124h149z"/><glyph glyph-name="Thorn" unicode="Þ" horiz-adv-x="599" d="M330 251q57 0 89.5 29.5T452 360q0 52-32.5 82T330 472H205V251h125zM205 147V0H85v709h120V576h137q50 0 92.5-16.5t73.5-45 48.5-68T574 361t-17.5-85.5-48-68-73-44.5-92.5-16H205z"/><glyph glyph-name="germandbls" unicode="ß" horiz-adv-x="583" d="M381 343q1-17 11-25t30-16l33-15q46-20 77-58.5t31-92.5q0-25-10-52t-31-49-53-36-77-14-77 14-51.5 35-29 46-9.5 47l96 22q0-11 4-23.5t12-23.5 21.5-18.5T392 76q31 0 46 17t15 35q0 41-50 63l-32 14q-18 8-37 18.5T299.5 249 274 285t-10 50q0 42 19.5 69t45.5 44l25 17q24 15 38.5 33.5T407 542q0 32-25.5 56T305 622q-23 0-44-8.5T224 588t-25.5-43.5T189 482V0H75v489q0 58 18.5 102t50 73.5 73 44.5 88.5 15q49 0 89.5-14t68.5-38 43.5-56 15.5-69q0-29-7.5-52T495 454t-28-31.5-33-24.5l-24-15q-13-8-21-17t-8-23z"/><glyph glyph-name="agrave" unicode="à" horiz-adv-x="532" d="M45 132q0 33 11.5 58t31 43.5T134 263t58 16l125 19q21 3 28.5 12.5T353 333q0 31-22 52.5T261 407q-46 0-71-25.5T161 319L55 343q3 31 19 60t42 51 62.5 35 81.5 13q56 0 95.5-15t64-40 36-58 11.5-69V78q0-33 2.5-53.5T473 0H365q-1 2-3 17.5T360 62q-17-28-54-52.5T210-15q-38 0-68.5 12t-52 32.5-33 47T45 132zm187-56q24 0 46 6.5t38.5 21T343 142t10 60v22l-127-19q-27-5-46-20.5T161 139q0-25 18-44t53-19zM98 696h139l88-148h-95z"/><glyph glyph-name="aacute" unicode="á" horiz-adv-x="532" d="M45 132q0 33 11.5 58t31 43.5T134 263t58 16l125 19q21 3 28.5 12.5T353 333q0 31-22 52.5T261 407q-46 0-71-25.5T161 319L55 343q3 31 19 60t42 51 62.5 35 81.5 13q56 0 95.5-15t64-40 36-58 11.5-69V78q0-33 2.5-53.5T473 0H365q-1 2-3 17.5T360 62q-17-28-54-52.5T210-15q-38 0-68.5 12t-52 32.5-33 47T45 132zm187-56q24 0 46 6.5t38.5 21T343 142t10 60v22l-127-19q-27-5-46-20.5T161 139q0-25 18-44t53-19zm59 472h-95l89 148h137z"/><glyph glyph-name="acircumflex" unicode="â" horiz-adv-x="532" d="M45 132q0 33 11.5 58t31 43.5T134 263t58 16l125 19q21 3 28.5 12.5T353 333q0 31-22 52.5T261 407q-46 0-71-25.5T161 319L55 343q3 31 19 60t42 51 62.5 35 81.5 13q56 0 95.5-15t64-40 36-58 11.5-69V78q0-33 2.5-53.5T473 0H365q-1 2-3 17.5T360 62q-17-28-54-52.5T210-15q-38 0-68.5 12t-52 32.5-33 47T45 132zm187-56q24 0 46 6.5t38.5 21T343 142t10 60v22l-127-19q-27-5-46-20.5T161 139q0-25 18-44t53-19zM96 549l107 143h121l108-143h-99l-70 77-70-77H96z"/><glyph glyph-name="atilde" unicode="ã" horiz-adv-x="532" d="M45 132q0 33 11.5 58t31 43.5T134 263t58 16l125 19q21 3 28.5 12.5T353 333q0 31-22 52.5T261 407q-46 0-71-25.5T161 319L55 343q3 31 19 60t42 51 62.5 35 81.5 13q56 0 95.5-15t64-40 36-58 11.5-69V78q0-33 2.5-53.5T473 0H365q-1 2-3 17.5T360 62q-17-28-54-52.5T210-15q-38 0-68.5 12t-52 32.5-33 47T45 132zm187-56q24 0 46 6.5t38.5 21T343 142t10 60v22l-127-19q-27-5-46-20.5T161 139q0-25 18-44t53-19zM101 574q0 59 29.5 87t73.5 28q22 0 38.5-6.5T274 667l10-6q11-7 21.5-12t21.5-5q31 0 31 44h76v-17q0-59-29-88t-73-29q-22 0-39 7t-32 16l-10 6q-11 7-21.5 11.5T208 599q-15 0-22.5-10t-7.5-33h-76z"/><glyph glyph-name="adieresis" unicode="ä" horiz-adv-x="532" d="M45 132q0 33 11.5 58t31 43.5T134 263t58 16l125 19q21 3 28.5 12.5T353 333q0 31-22 52.5T261 407q-46 0-71-25.5T161 319L55 343q3 31 19 60t42 51 62.5 35 81.5 13q56 0 95.5-15t64-40 36-58 11.5-69V78q0-33 2.5-53.5T473 0H365q-1 2-3 17.5T360 62q-17-28-54-52.5T210-15q-38 0-68.5 12t-52 32.5-33 47T45 132zm187-56q24 0 46 6.5t38.5 21T343 142t10 60v22l-127-19q-27-5-46-20.5T161 139q0-25 18-44t53-19zM99 625q0 27 18.5 46t45.5 19q28 0 47-19t19-46q0-28-19-46.5T163 560q-27 0-45.5 18.5T99 625zm200 0q0 27 18.5 46t45.5 19 46-19 19-46q0-28-19-46.5T363 560t-45.5 18.5T299 625z"/><glyph glyph-name="aring" unicode="å" horiz-adv-x="532" d="M45 132q0 33 11.5 58t31 43.5T134 263t58 16l125 19q21 3 28.5 12.5T353 333q0 31-22 52.5T261 407q-46 0-71-25.5T161 319L55 343q3 31 19 60t42 51 62.5 35 81.5 13q56 0 95.5-15t64-40 36-58 11.5-69V78q0-33 2.5-53.5T473 0H365q-1 2-3 17.5T360 62q-17-28-54-52.5T210-15q-38 0-68.5 12t-52 32.5-33 47T45 132zm187-56q24 0 46 6.5t38.5 21T343 142t10 60v22l-127-19q-27-5-46-20.5T161 139q0-25 18-44t53-19zm141 572q0-24-9-44t-25-34.5-36.5-23T259 538t-43 8.5-36 23-25 34.5-9 44 9 44.5 25 35 36 23 43 8.5 43.5-8.5 36.5-23 25-35 9-44.5zm-70 0q0 20-12.5 32.5T258 693q-18 0-30.5-12.5T215 648q0-19 12.5-31.5T258 604q20 0 32.5 12.5T303 648z"/><glyph glyph-name="ae" unicode="æ" horiz-adv-x="872" d="M829 139q-10-32-30-60t-48.5-49-65-33T607-15q-59 0-110 24.5T412 80q-12-18-28.5-35T344 14.5 291-7t-67-8q-44 0-77 12T91 29.5t-34.5 47T45 132q0 33 11.5 58t31 43.5T134 263t58 16l132 19q23 3 30 13.5t7 21.5q0 30-24 52.5T264 408q-48 0-75.5-25.5T157 322L55 343q3 33 20.5 61.5T121 455t65 34.5 79 12.5q61 0 102.5-19.5T433 431q32 34 75 52.5t90 18.5q56 0 100-18t74-51 46-79.5T834 249q0-8-.5-19t-1.5-18H474q1-28 12-51.5t29-40 42-26 51-9.5q53 0 81.5 24.5T731 171zM236 76q22 0 44.5 6.5t40.5 21 29 38.5 11 59v23l-135-19q-29-4-47-21t-18-47q0-23 19-42t56-19zm482 221q-1 21-8.5 40.5T687 372t-37.5 24-52.5 9q-28 0-49.5-9.5t-36.5-25-24-35-10-38.5h241z"/><glyph glyph-name="ccedilla" unicode="ç" horiz-adv-x="541" d="M220-63l33 51q-47 6-86.5 28t-68 55.5-45 77.5T37 244q0 56 19 103.5t53 82 79 53.5 98 19q49 0 87-14t66-36.5 45-51.5 25-58l-104-38q-4 16-12.5 32.5t-23 29.5-34.5 21-48 8q-27 0-51-10t-42.5-29-29.5-47-11-65 11-65.5 29.5-48T237 101t52-10q28 0 49.5 9t36 22.5 23.5 29 13 29.5l102-37q-8-26-23-51t-37.5-46.5-53-37T330-12l-23-36q43-1 70-23.5t27-60.5q0-18-7-34.5t-21.5-29-38-20.5-56.5-8q-40 0-70.5 15T166-176l41 50q10-10 28.5-22.5T280-161q18 0 31 7t13 23q0 12-10.5 21t-30.5 9q-15 0-28-5z"/><glyph glyph-name="egrave" unicode="è" horiz-adv-x="548" d="M395 297q-1 21-8.5 40.5T364 372t-37 24-52 9q-27 0-48.5-9.5t-36.5-25-24-35-10-38.5h239zm111-158q-10-32-29-60t-47-49-64-33-80-12q-50 0-95 17.5t-79 51-54.5 82T37 246q0 58 19.5 105t52.5 80.5 76 52 89 18.5q56 0 100.5-18t75-51 46.5-79.5T512 249q0-14-1-24.5t-2-12.5H153q1-28 12-51t29-40 41.5-26.5T286 85q53 0 81.5 24.5T408 170zM112 696h139l88-148h-95z"/><glyph glyph-name="eacute" unicode="é" horiz-adv-x="548" d="M317 548h-95l89 148h137zm78-251q-1 21-8.5 40.5T364 372t-37 24-52 9q-27 0-48.5-9.5t-36.5-25-24-35-10-38.5h239zm111-158q-10-32-29-60t-47-49-64-33-80-12q-50 0-95 17.5t-79 51-54.5 82T37 246q0 58 19.5 105t52.5 80.5 76 52 89 18.5q56 0 100.5-18t75-51 46.5-79.5T512 249q0-14-1-24.5t-2-12.5H153q1-28 12-51t29-40 41.5-26.5T286 85q53 0 81.5 24.5T408 170z"/><glyph glyph-name="ecircumflex" unicode="ê" horiz-adv-x="548" d="M113 549l107 143h121l108-143h-99l-70 77-70-77h-97zm282-252q-1 21-8.5 40.5T364 372t-37 24-52 9q-27 0-48.5-9.5t-36.5-25-24-35-10-38.5h239zm111-158q-10-32-29-60t-47-49-64-33-80-12q-50 0-95 17.5t-79 51-54.5 82T37 246q0 58 19.5 105t52.5 80.5 76 52 89 18.5q56 0 100.5-18t75-51 46.5-79.5T512 249q0-14-1-24.5t-2-12.5H153q1-28 12-51t29-40 41.5-26.5T286 85q53 0 81.5 24.5T408 170z"/><glyph glyph-name="edieresis" unicode="ë" horiz-adv-x="548" d="M115 625q0 27 18.5 46t45.5 19q28 0 47-19t19-46q0-28-19-46.5T179 560q-27 0-45.5 18.5T115 625zm200 0q0 27 18.5 46t45.5 19 46-19 19-46q0-28-19-46.5T379 560t-45.5 18.5T315 625zm80-328q-1 21-8.5 40.5T364 372t-37 24-52 9q-27 0-48.5-9.5t-36.5-25-24-35-10-38.5h239zm111-158q-10-32-29-60t-47-49-64-33-80-12q-50 0-95 17.5t-79 51-54.5 82T37 246q0 58 19.5 105t52.5 80.5 76 52 89 18.5q56 0 100.5-18t75-51 46.5-79.5T512 249q0-14-1-24.5t-2-12.5H153q1-28 12-51t29-40 41.5-26.5T286 85q53 0 81.5 24.5T408 170z"/><glyph glyph-name="igrave" unicode="ì" horiz-adv-x="265" d="M75 0v487h115V0H75zM-38 696h139l88-148H94z"/><glyph glyph-name="iacute" unicode="í" horiz-adv-x="265" d="M176 548H81l89 148h137zM75 0v487h115V0H75z"/><glyph glyph-name="icircumflex" unicode="î" horiz-adv-x="265" d="M-34 549L73 692h121l108-143h-99l-70 77-70-77h-97zM75 0v487h115V0H75z"/><glyph glyph-name="idieresis" unicode="ï" horiz-adv-x="265" d="M-10 625q0 26 17.5 44T51 687t44-18 18-44-18-43.5T51 564 7.5 581.5-10 625zm162 0q0 26 17.5 44t43.5 18 44-18 18-44-18-43.5-44-17.5-43.5 17.5T152 625zM75 0v487h115V0H75z"/><glyph glyph-name="eth" unicode="ð" horiz-adv-x="576" d="M417 594q54-56 88.5-135.5T540 270q0-59-16.5-110.5t-48.5-90-79-61T288-14q-54 0-100 18.5T108.5 55 56 131.5 37 228q0 57 20.5 100.5T111 402t75.5 45.5T273 463q39 0 73.5-11t53.5-33q-14 40-35.5 71.5T315 548l-135-61-31 72 92 42q-28 16-57 27t-56 19l36 89q42-11 90.5-31t96.5-54l112 51 32-73zM288 89q27 0 51.5 9t43 27 29.5 44 11 60-11 60.5-29.5 44-43 26.5-51.5 9-51.5-9-43-27-30-44-11.5-60 11.5-60 30-44 43-27 51.5-9z"/><glyph glyph-name="ntilde" unicode="ñ" horiz-adv-x="574" d="M191 0H75v487h113v-65q24 42 63.5 60.5T332 501q45 0 78-15t54.5-41.5T497 383t11-75V0H392v288q0 45-22.5 76.5T292 396q-50 0-75.5-33.5T191 281V0zm-59 574q0 59 29.5 87t73.5 28q22 0 38.5-6.5T305 667l10-6q11-7 21.5-12t21.5-5q31 0 31 44h76v-17q0-59-29-88t-73-29q-22 0-39 7t-32 16l-10 6q-11 7-21.5 11.5T239 599q-15 0-22.5-10t-7.5-33h-76z"/><glyph glyph-name="ograve" unicode="ò" horiz-adv-x="579" d="M289 89q27 0 51.5 10t43.5 29.5 30 48.5 11 67-11 66.5-30 48-43.5 29T289 397t-51.5-9.5-43-29-30-48T153 244t11.5-67 30-48.5 43-29.5T289 89zm0 413q55 0 101-19.5t80-54 53-81.5 19-103-19-103.5-53-82-80-54T289-15q-54 0-100.5 19.5t-80 54-52.5 82T37 244t19 103 52.5 81.5 80 54T289 502zM115 696h139l88-148h-95z"/><glyph glyph-name="oacute" unicode="ó" horiz-adv-x="579" d="M327 548h-95l89 148h137zM289 89q27 0 51.5 10t43.5 29.5 30 48.5 11 67-11 66.5-30 48-43.5 29T289 397t-51.5-9.5-43-29-30-48T153 244t11.5-67 30-48.5 43-29.5T289 89zm0 413q55 0 101-19.5t80-54 53-81.5 19-103-19-103.5-53-82-80-54T289-15q-54 0-100.5 19.5t-80 54-52.5 82T37 244t19 103 52.5 81.5 80 54T289 502z"/><glyph glyph-name="ocircumflex" unicode="ô" horiz-adv-x="579" d="M123 549l107 143h121l108-143h-99l-70 77-70-77h-97zM289 89q27 0 51.5 10t43.5 29.5 30 48.5 11 67-11 66.5-30 48-43.5 29T289 397t-51.5-9.5-43-29-30-48T153 244t11.5-67 30-48.5 43-29.5T289 89zm0 413q55 0 101-19.5t80-54 53-81.5 19-103-19-103.5-53-82-80-54T289-15q-54 0-100.5 19.5t-80 54-52.5 82T37 244t19 103 52.5 81.5 80 54T289 502z"/><glyph glyph-name="otilde" unicode="õ" horiz-adv-x="579" d="M289 89q27 0 51.5 10t43.5 29.5 30 48.5 11 67-11 66.5-30 48-43.5 29T289 397t-51.5-9.5-43-29-30-48T153 244t11.5-67 30-48.5 43-29.5T289 89zm0 413q55 0 101-19.5t80-54 53-81.5 19-103-19-103.5-53-82-80-54T289-15q-54 0-100.5 19.5t-80 54-52.5 82T37 244t19 103 52.5 81.5 80 54T289 502zm-164 72q0 59 29.5 87t73.5 28q22 0 38.5-6.5T298 667l10-6q11-7 21.5-12t21.5-5q31 0 31 44h76v-17q0-59-29-88t-73-29q-22 0-39 7t-32 16l-10 6q-11 7-21.5 11.5T232 599q-15 0-22.5-10t-7.5-33h-76z"/><glyph glyph-name="odieresis" unicode="ö" horiz-adv-x="579" d="M124 625q0 27 18.5 46t45.5 19q28 0 47-19t19-46q0-28-19-46.5T188 560q-27 0-45.5 18.5T124 625zm200 0q0 27 18.5 46t45.5 19 46-19 19-46q0-28-19-46.5T388 560t-45.5 18.5T324 625zM289 89q27 0 51.5 10t43.5 29.5 30 48.5 11 67-11 66.5-30 48-43.5 29T289 397t-51.5-9.5-43-29-30-48T153 244t11.5-67 30-48.5 43-29.5T289 89zm0 413q55 0 101-19.5t80-54 53-81.5 19-103-19-103.5-53-82-80-54T289-15q-54 0-100.5 19.5t-80 54-52.5 82T37 244t19 103 52.5 81.5 80 54T289 502z"/><glyph glyph-name="divide" unicode="÷" horiz-adv-x="578" d="M215 111q0 29 21.5 50t50.5 21q30 0 51-21t21-50-21-50.5T287 39q-29 0-50.5 21.5T215 111zm0 361q0 29 21.5 50.5T287 544q30 0 51-21.5t21-50.5-21-50.5-51-21.5q-29 0-50.5 21.5T215 472zM52 341h474v-99H52v99z"/><glyph glyph-name="oslash" unicode="ø" horiz-adv-x="579" d="M289 502q36 0 68.5-8.5T418 469l52 65 62-51-52-65q29-34 45.5-78.5T542 244q0-56-19-103.5t-53-82-80-54T289-15q-38 0-69 8.5T163 17l-50-63L50 5l50 63q-30 34-46.5 78.5T37 244q0 56 19 103t52.5 81.5 80 54T289 502zM153 244q0-49 19-85l178 224q-30 14-61 14-27 0-51.5-9.5t-43-29-30-48T153 244zM289 89q27 0 51.5 10t43.5 29.5 30 48.5 11 67q0 24-5 44.5T407 326L230 102q26-13 59-13z"/><glyph glyph-name="ugrave" unicode="ù" horiz-adv-x="577" d="M392 54q-18-33-56.5-50.5T254-14q-44 0-78 15t-57.5 41.5-36 61.5T70 180v307h116V201q0-23 5.5-43t17.5-35 30.5-24 44.5-9q51 0 76.5 30.5T386 199v288h116V89q0-30 1.5-52.5T507 0H396q-2 8-3 23.5T392 54zM125 696h139l88-148h-95z"/><glyph glyph-name="uacute" unicode="ú" horiz-adv-x="577" d="M304 548h-95l89 148h137zm88-494q-18-33-56.5-50.5T254-14q-44 0-78 15t-57.5 41.5-36 61.5T70 180v307h116V201q0-23 5.5-43t17.5-35 30.5-24 44.5-9q51 0 76.5 30.5T386 199v288h116V89q0-30 1.5-52.5T507 0H396q-2 8-3 23.5T392 54z"/><glyph glyph-name="ucircumflex" unicode="û" horiz-adv-x="577" d="M119 549l107 143h121l108-143h-99l-70 77-70-77h-97zM392 54q-18-33-56.5-50.5T254-14q-44 0-78 15t-57.5 41.5-36 61.5T70 180v307h116V201q0-23 5.5-43t17.5-35 30.5-24 44.5-9q51 0 76.5 30.5T386 199v288h116V89q0-30 1.5-52.5T507 0H396q-2 8-3 23.5T392 54z"/><glyph glyph-name="udieresis" unicode="ü" horiz-adv-x="577" d="M122 625q0 27 18.5 46t45.5 19q28 0 47-19t19-46q0-28-19-46.5T186 560q-27 0-45.5 18.5T122 625zm200 0q0 27 18.5 46t45.5 19 46-19 19-46q0-28-19-46.5T386 560t-45.5 18.5T322 625zm70-571q-18-33-56.5-50.5T254-14q-44 0-78 15t-57.5 41.5-36 61.5T70 180v307h116V201q0-23 5.5-43t17.5-35 30.5-24 44.5-9q51 0 76.5 30.5T386 199v288h116V89q0-30 1.5-52.5T507 0H396q-2 8-3 23.5T392 54z"/><glyph glyph-name="yacute" unicode="ý" horiz-adv-x="543" d="M99-197L216 58 8 487h131l140-308 131 308h123L223-197H99zm201 745h-95l89 148h137z"/><glyph glyph-name="thorn" unicode="þ" horiz-adv-x="604" d="M75-190v914h116V427q20 29 58.5 50t92.5 21 96-19.5 70.5-53.5 43.5-80.5T567 244q0-55-16-101.5t-46-81-72.5-54T338-12q-53 0-91 19.5T190 55v-245H75zm376 434q0 69-36 110t-95 41q-29 0-53-11t-41-30.5-27-47.5-10-62q0-70 37-111.5T320 91q58 0 94.5 41.5T451 244z"/><glyph glyph-name="ydieresis" unicode="ÿ" horiz-adv-x="543" d="M99-197L216 58 8 487h131l140-308 131 308h123L223-197H99zm9 822q0 27 18.5 46t45.5 19q28 0 47-19t19-46q0-28-19-46.5T172 560q-27 0-45.5 18.5T108 625zm200 0q0 27 18.5 46t45.5 19 46-19 19-46q0-28-19-46.5T372 560t-45.5 18.5T308 625z"/><glyph glyph-name="dotlessi" unicode="ı" horiz-adv-x="265" d="M75 0v487h115V0H75z"/><glyph glyph-name="IJ" unicode="Ĳ" horiz-adv-x="605" d="M77 305v404h122V305H77zm122-70v-17q0-63 29-91.5T305 98t75.5 30.5T408 213v496h121V216q0-47-16-89t-45-73.5-70-50T306-15q-53 0-95 16.5T139 48t-46 72-16 94z"/><glyph glyph-name="ij" unicode="ĳ" horiz-adv-x="535" d="M75 0v487h115V0H75zM57 658q0 32 22 54t53 22q32 0 54-22t22-54-22-53.5-54-21.5q-31 0-53 21.5T57 658zm288-171h116V-49q0-34-10-62.5T422-161t-45.5-32.5T316-205q-29 0-45.5 3.5T250-196v96q4-1 14.5-2t20.5-1q33 0 46.5 16.5T345-40v527zm-18 172q0 32 22 54t53 22q32 0 54-22t22-54q0-31-22-53t-54-22q-31 0-53 22t-22 53z"/><glyph glyph-name="Lslash" unicode="Ł" horiz-adv-x="572" d="M102 0v273L8 231v100l94 42v336h120V427l159 71V398l-159-71V114h325V0H102z"/><glyph glyph-name="lslash" unicode="ł" horiz-adv-x="309" d="M95 0v264L8 225v101l87 39v359h116V417l90 40V357l-90-41V0H95z"/><glyph glyph-name="OE" unicode="Œ" horiz-adv-x="1136" d="M640 0v81Q595 34 534 9.5T402-15q-70 0-135 25T152 82.5 72 199 42 355t30 155.5 80 116T267 699t135 25q71 0 132-24.5T640 627v82h437V597H760V409h288V300H760V112h318V0H640zM165 355q0-64 20.5-112t53.5-80 75.5-48T402 99t88 16 76 48 53.5 80T640 355t-20.5 112-53.5 80-76 48-88 16-87.5-16-75.5-48-53.5-80T165 355z"/><glyph glyph-name="oe" unicode="œ" horiz-adv-x="937" d="M289 502q60 0 109.5-22.5T483 415q32 40 79.5 63.5T663 502q56 0 100.5-18t75-51 46.5-79.5T901 249q0-14-1-24.5t-2-12.5H542q1-28 12-51t29-40 41.5-26.5T675 85q53 0 81.5 24.5T797 170l98-31q-10-32-29-60t-47-49-64-33-80-12q-57 0-107 22.5T483 73q-34-42-84-65T289-15q-54 0-100.5 19.5t-80 54-52.5 82T37 244t19 103 52.5 81.5 80 54T289 502zm0-413q27 0 51.5 10t43.5 29.5 30 48.5 11 67-11 66.5-30 48-43.5 29T289 397t-51.5-9.5-43-29-30-48T153 244t11.5-67 30-48.5 43-29.5T289 89zm495 208q-1 21-8.5 40.5T753 372t-37 24-52 9q-27 0-48.5-9.5t-36.5-25-24-35-10-38.5h239z"/><glyph glyph-name="Scaron" unicode="Š" horiz-adv-x="599" d="M236 883l72-65 75 65h108L372 759H243L127 883h109zm207-374q-3 16-11.5 35.5t-25 35.5-41.5 27-61 11q-27 0-49.5-8.5T216 587t-25-32.5-9-38.5q0-34 20.5-58t62.5-33l102-21q94-19 143-74t49-130q0-41-16.5-80T494 51 415.5 3 308-15q-68 0-117.5 19.5t-83 51T56 126t-22 77l112 32q3-28 14-53.5t31.5-45T241 105t67-12q64 0 96.5 28t32.5 70q0 35-24.5 60.5T342 287l-100 21q-81 17-130.5 68T62 507q0 45 19 84.5t52 69 76.5 46.5 93.5 17q63 0 107-17t73.5-43.5T529 605t22-62z"/><glyph glyph-name="scaron" unicode="š" horiz-adv-x="457" d="M159 694l70-77 70 77h98L291 549H167L61 694h98zm-26-534q3-33 27.5-58T232 77q36 0 54.5 16.5T305 133q0 20-14 34t-43 20l-72 16q-65 14-98 52.5T45 345q0 32 14 60.5t38 50 56.5 34T224 502q51 0 85.5-14.5T366 452t32.5-44.5T412 366l-98-28q-2 10-7 23t-15.5 24-27 18.5T224 411q-31 0-50.5-16.5T154 355q0-20 13-33t36-18l74-15q69-15 104.5-54.5T417 141q0-28-11.5-55.5t-34-50T314-1t-81-14q-53 0-90 15T82 37.5t-36 48T32 132z"/><glyph glyph-name="Ydieresis" unicode="Ÿ" horiz-adv-x="638" d="M135 821q0 28 18.5 47.5T201 888q28 0 47-19.5t19-47.5-19-47-47-19q-29 0-47.5 19T135 821zm239 0q0 28 19 47.5t47 19.5 47.5-19.5T507 821t-19.5-47-47.5-19-47 19-19 47zM10 709h142l170-297 171 297h135L378 300V0H258v300z"/><glyph glyph-name="Zcaron" unicode="Ž" horiz-adv-x="636" d="M252 883l72-65 75 65h108L388 759H259L143 883h109zM42 0v118l393 478H53v113h537V595L192 114h403V0H42z"/><glyph glyph-name="zcaron" unicode="ž" horiz-adv-x="474" d="M171 694l70-77 70 77h98L303 549H179L73 694h98zM38 0v101l247 284H43v102h388v-98L181 102h255V0H38z"/><glyph glyph-name="florin" unicode="ƒ" horiz-adv-x="498" d="M193 388H90v99h123l21 101q8 40 26 69t42 47.5 52 27 57 8.5q32 0 48.5-3.5T493 728V627q-26 8-57 8-12 0-25-2.5T385 621t-23-25.5-16-44.5l-13-64h122v-99H313L232-13q-8-40-26-69t-42-47.5-52-27-57-8.5q-33 0-50 3.5t-35 8.5v101q12-3 27-5t34-2q12 0 25 2.5T81.5-45t23 25.5T120 24z"/><glyph glyph-name="circumflex" unicode="ˆ" horiz-adv-x="396" d="M30 549l107 143h121l108-143h-99l-70 77-70-77H30z"/><glyph glyph-name="caron" unicode="ˇ" horiz-adv-x="396" d="M128 694l70-77 70 77h98L260 549H136L30 694h98z"/><glyph glyph-name="uni02C9" unicode="ˉ" horiz-adv-x="338" d="M30 577v90h278v-90H30z"/><glyph glyph-name="breve" unicode="˘" horiz-adv-x="369" d="M184 547q-38 0-66 12.5t-47.5 33-29.5 47T30 694h82q2-22 18-41.5t54-19.5q19 0 32.5 5.5T239 653t13 19.5 5 21.5h82q-1-28-11-54.5t-29-47-48-33-67-12.5z"/><glyph glyph-name="dotaccent" unicode="˙" horiz-adv-x="184" d="M20 622q0 30 21 51t51 21 51-21 21-51q0-29-21-50t-51-21-51 21-21 50z"/><glyph glyph-name="ring" unicode="˚" horiz-adv-x="287" d="M257 645q0-24-9-44t-25-34.5-36.5-23T143 535t-43 8.5-36 23T39 601t-9 44 9 44.5 25 35 36 23 43 8.5 43.5-8.5 36.5-23 25-35 9-44.5zm-70 0q0 20-12.5 32.5T142 690q-18 0-30.5-12.5T99 645q0-19 12.5-31.5T142 601q20 0 32.5 12.5T187 645z"/><glyph glyph-name="ogonek" unicode="˛" horiz-adv-x="228" d="M147-220q-25 0-47 7t-38 20.5-25 33-9 43.5q0 28 9.5 49.5t24.5 37T95-3t35 19l68-16q-14-7-28.5-16T143-37t-19.5-26.5T116-95q0-24 15.5-35t35.5-11q16 0 31 3v-74q-10-4-21.5-6t-29.5-2z"/><glyph glyph-name="tilde" unicode="˜" horiz-adv-x="385" d="M26 574q0 59 29.5 87t73.5 28q22 0 38.5-6.5T199 667l10-6q11-7 21.5-12t21.5-5q31 0 31 44h76v-17q0-59-29-88t-73-29q-22 0-39 7t-32 16l-10 6q-11 7-21.5 11.5T133 599q-15 0-22.5-10t-7.5-33H27z"/><glyph glyph-name="hungarumlaut" unicode="˝" horiz-adv-x="383" d="M105 548H29l52 148h118zm142 0h-76l64 148h119z"/><glyph glyph-name="uni0394" unicode="Δ" horiz-adv-x="678" d="M274 709h129L678 0H0zM167 111h343L338 576z"/><glyph glyph-name="uni03A9" unicode="Ω" horiz-adv-x="788" d="M394 614q-42 0-82.5-14.5t-72.5-43-51.5-70T168 391q0-48 16.5-86.5T227 237t59.5-47.5T355 164V0H51v109h189q-38 15-73 41t-62 62.5-43.5 83T45 396q0 76 29 137t77 103.5 111 65T394 724t132-22.5 111-65T714 533t29-137q0-54-16.5-100.5t-43.5-83-62.5-62.5-72.5-41h189V0H433v164q34 7 68 25.5t60 47.5 42.5 67.5T620 391q0 54-19.5 95.5t-51.5 70-72.5 43T394 614z"/><glyph glyph-name="uni03BC" unicode="μ" horiz-adv-x="584" d="M397 54q-18-33-56.5-50.5T259-14q-38 0-68 12v-188H75v677h116V201q0-23 5.5-43t17.5-35 30.5-24 44.5-9q51 0 76.5 30.5T391 199v288h116V89q0-23 1.5-46T512 0H401q-2 8-3 23.5T397 54z"/><glyph glyph-name="pi" unicode="π" horiz-adv-x="628" d="M582 5q-6-2-22-7.5T517-8q-34 0-58.5 10.5t-41 28.5T393 73t-8 52v262H238V0H123v387H40v100h540V387h-80V139q0-27 15.5-37.5T551 91q19 0 31 4V5z"/><glyph glyph-name="uni2007" horiz-adv-x="619"/><glyph glyph-name="uni2008" horiz-adv-x="296"/><glyph glyph-name="uni200B" unicode="​" horiz-adv-x="0"/><glyph glyph-name="endash" unicode="–" horiz-adv-x="641" d="M63 242v101h514V242H63z"/><glyph glyph-name="emdash" unicode="—" horiz-adv-x="1092" d="M73 242v101h946V242H73z"/><glyph glyph-name="quoteleft" unicode="‘" horiz-adv-x="226" d="M190 509q0-27-20.5-46.5T117 443q-35 0-57.5 24.5T37 534q0 47 14 80t35.5 55 46.5 33 48 13v-55q-31-6-54-31.5T102 571q2 1 7.5 3t13.5 2q29 0 48-18.5t19-48.5z"/><glyph glyph-name="quoteright" unicode="’" horiz-adv-x="230" d="M37 649q0 27 21 47.5t53 20.5q36 0 59.5-25.5T194 624q0-49-14.5-83T143 484.5 95 451t-49-13v55q31 6 54.5 32t25.5 60q-2-1-7.5-3t-13.5-2q-30 0-49 19t-19 50z"/><glyph glyph-name="quotesinglbase" unicode="‚" horiz-adv-x="230" d="M37 65q0 28 21 48t53 20q36 0 59.5-25.5T194 40q0-48-14.5-82.5T143-99t-48-33-49-14v56q15 3 29.5 11T101-58.5t17.5 28T126 2q-2-2-7.5-3.5T105-3Q75-3 56 15.5T37 65z"/><glyph glyph-name="quotedblleft" unicode="“" horiz-adv-x="412" d="M375 512q0-27-20.5-46.5T302 446q-35 0-57.5 24.5T222 537q0 47 14 80t35.5 55 47 33 47.5 13v-55q-15-3-29-11t-24.5-20-17-27-7.5-31q2 1 7 3t13 2q30 0 48.5-18.5T375 512zm-185 0q0-27-20.5-46.5T117 446q-35 0-57.5 24.5T37 537q0 47 14 80t35.5 55 46.5 33 48 13v-55q-31-5-54-31t-25-58q2 1 7.5 3t13.5 2q29 0 48-18.5t19-48.5z"/><glyph glyph-name="quotedblright" unicode="”" horiz-adv-x="411" d="M37 648q0 28 20 47.5t52 19.5q35 0 58-24.5t23-66.5q0-47-14-80.5t-36-55-47.5-32T45 443v54q31 6 54 31t25 59q-2-2-7.5-3.5T103 582q-29 0-47.5 18T37 648zm184 0q0 28 20.5 47.5T294 715q35 0 57.5-24.5T374 624q0-47-14-80.5t-35.5-55-47-32T230 443v54q31 6 54 31t24 59q-2-2-7-3.5t-13-1.5q-29 0-48 18t-19 48z"/><glyph glyph-name="quotedblbase" unicode="„" horiz-adv-x="411" d="M37 63q0 28 20 47.5t52 19.5q35 0 58-24.5T190 39q0-47-14-80.5t-36-55-47.5-32T45-142v54q31 6 54 31t25 59q-2-2-7.5-3.5T103-3Q74-3 55.5 15T37 63zm184 0q0 28 20.5 47.5T294 130q35 0 57.5-24.5T374 39q0-47-14-80.5t-35.5-55-47-32T230-142v54q31 6 54 31t24 59q-2-2-7-3.5T288-3q-29 0-48 18t-19 48z"/><glyph glyph-name="dagger" unicode="†" horiz-adv-x="401" d="M151 162v308H27v94h124v145h99V564h124v-94H250V162h-99z"/><glyph glyph-name="daggerdbl" unicode="‡" horiz-adv-x="441" d="M171 239v231H47v93h124v146h99V563h124v-93H270V239h124v-93H270V0h-99v146H47v93h124z"/><glyph glyph-name="bullet" unicode="•" horiz-adv-x="542" d="M63 294q0 43 16.5 81.5t45 66.5 66 44.5T271 503t80.5-16.5 66-44.5 45-66.5T479 294q0-42-16.5-80t-45-66-66-44.5T271 87t-80.5 16.5-66 44.5-45 66T63 294z"/><glyph glyph-name="ellipsis" unicode="…" horiz-adv-x="926" d="M844 65q0-30-21-51.5T771-8t-52.5 21.5T697 65q0 31 21.5 52.5T771 139t52-21.5T844 65zm-308 0q0-30-21-51.5T463-8t-52.5 21.5T389 65q0 31 21.5 52.5T463 139t52-21.5T536 65zm-307 0q0-30-21.5-51.5T155-8q-30 0-51.5 21.5T82 65q0 31 21.5 52.5T155 139q31 0 52.5-21.5T229 65z"/><glyph glyph-name="perthousand" unicode="‰" horiz-adv-x="1070" d="M141 497q0-33 20.5-53.5T212 423q31 0 51 20.5t20 53.5q0 32-20 52.5T212 570q-30 0-50.5-20.5T141 497zm-92 0q0 34 13 63t35.5 50.5 52 34T212 657t63-12.5 52.5-34T363 560t13-63q0-35-13-64t-35.5-51-52.5-34-63-12-63 12.5-52 34-35 51T49 497zm510-345q0-33 21-53.5T631 78q31 0 51 20.5t20 53.5q0 32-20 52.5T631 225q-30 0-51-20.5T559 152zM139 0l462 648h104L244 0H139zm653 152q0-33 20.5-53.5T863 78q31 0 51.5 20.5T935 152q0 32-20.5 52.5T863 225q-30 0-50.5-20.5T792 152zm-325 0q0 34 13 63t35.5 50.5 52.5 34 63 12.5q37 0 66.5-14.5T747 257q20 26 49.5 40.5T863 312q33 0 63-12.5t52.5-34 36-50.5 13.5-63q0-35-13.5-64t-36-51T926 3 863-9q-37 0-66.5 14.5T747 46q-20-26-50-40.5T630-9q-33 0-62.5 12.5t-52 34-35.5 51-13 63.5z"/><glyph glyph-name="guilsinglleft" unicode="‹" horiz-adv-x="293" d="M163 100L28 293l136 194h111L141 292l133-192H163z"/><glyph glyph-name="guilsinglright" unicode="›" horiz-adv-x="293" d="M19 100l133 192L18 487h112l135-194-135-193H19z"/><glyph glyph-name="uni2042" unicode="⁂" horiz-adv-x="836" d="M458 594l106 35 25-76-107-35 69-91-64-47-71 93-66-92-66 47 68 90-107 35 25 76 105-36v115h83V594zM248 203l106 35 25-76-107-35 69-91-64-47-71 93-66-92-66 47 68 90-107 35 25 76 105-36v115h83V203zm424 0l106 35 25-76-107-35 69-91-64-47-71 93-66-92-66 47 68 90-107 35 25 76 105-36v115h83V203z"/><glyph glyph-name="fraction" unicode="⁄" horiz-adv-x="566" d="M0 0l462 648h104L105 0H0z"/><glyph glyph-name="uni2051" unicode="⁑" horiz-adv-x="426" d="M254 594l106 35 25-76-107-35 69-91-64-47-71 93-66-92-66 47 68 90-107 35 25 76 105-36v115h83V594zm0-389l106 35 25-76-107-35 69-91-64-47-71 93-66-92-66 47 68 90-107 35 25 76 105-36v115h83V205z"/><glyph glyph-name="uni2070" unicode="⁰" horiz-adv-x="431" d="M147 526q0-20 2.5-40t9.5-36.5 20.5-27T215 412t35.5 10.5 21 27T281 486t2 40q0 19-2 39.5t-9.5 37.5-21 27.5T215 641t-35.5-10.5-20.5-27-9.5-37T147 526zm-92 0q0 34 7.5 68t26 61.5T138 700t77 17q47 0 78-17.5t49.5-45 26-61.5 7.5-67-7.5-66.5-26-61-49.5-45-78-17.5-78 17-49 44.5T62.5 459 55 526z"/><glyph glyph-name="uni2074" unicode="⁴" horiz-adv-x="443" d="M55 502l172 207h99V487h62v-73h-62v-71h-90v71H55v88zm181 110L133 487h103v125z"/><glyph glyph-name="uni2075" unicode="⁵" horiz-adv-x="404" d="M134 464q5-24 23-38t43-14q26 0 42.5 13.5T259 465q0 29-17 42.5T199 521q-18 0-32.5-6.5T141 497l-74 24 47 188h214v-75H170l-19-73q13 13 32.5 19t39.5 6q57 0 91.5-31.5T349 467q0-27-10-51t-28.5-41.5-46.5-28-64-10.5q-29 0-53.5 8.5T103 367t-31.5 32.5T55 439z"/><glyph glyph-name="uni2076" unicode="⁶" horiz-adv-x="418" d="M329 631q-29 12-64 12-43 0-76-22t-43-70q14 17 37.5 27t49.5 10q57 0 93.5-31t36.5-91q0-29-11.5-53.5T320 371t-48-26.5-61-9.5q-30 0-58.5 10.5t-50 31.5T68 429.5 55 503q0 49 15.5 89t43 67.5 65 42.5 80.5 15q24 0 47-5t41-13zM151 464q0-26 19-40.5t42-14.5 41.5 14.5T272 464t-18.5 41-41.5 15-42-15-19-41z"/><glyph glyph-name="uni2077" unicode="⁷" horiz-adv-x="413" d="M358 632q-13-10-35.5-31T277 545t-42-85-25-117h-96q6 71 27.5 125t44.5 91q27 43 60 74H55v76h303v-77z"/><glyph glyph-name="uni2078" unicode="⁸" horiz-adv-x="415" d="M208 562q24 0 37 12.5t13 30.5q0 16-12.5 28T208 645t-38-12-13-28q0-18 13.5-30.5T208 562zm0-154q31 0 45.5 13t14.5 33q0 18-15 31t-45 13-45.5-13-15.5-31q0-20 15-33t46-13zm0-73q-72 0-111.5 30.5T57 444q0 29 19.5 52.5T128 531q-29 11-44.5 33T68 612q0 46 38 75.5T208 717t101.5-29.5T347 612q0-26-15-48t-44-33q32-11 51.5-34t19.5-51q0-48-39-79.5T208 335z"/><glyph glyph-name="uni2079" unicode="⁹" horiz-adv-x="417" d="M91 422q14-5 29.5-9t32.5-4q45 0 79 21t42 71q-14-17-38-27t-50-10q-27 0-50.5 8T94 495.5 65.5 534 55 586t11 53 31.5 41.5 48.5 27 61 9.5q30 0 58-10.5t49.5-30.5 34.5-51 13-71q0-53-15-94t-41-68.5-63-42-80-14.5q-24 0-47.5 4.5T74 352zm174 165q0 26-18 41t-43 15q-24 0-42-15t-18-41 18-41 42-15q25 0 43 15t18 41z"/><glyph glyph-name="uni2080" unicode="₀" horiz-adv-x="431" d="M147 93q0-20 2.5-40t9.5-36.5 20.5-27T215-21t35.5 10.5 21 27T281 53t2 40q0 19-2 39.5t-9.5 37.5-21 27.5T215 208t-35.5-10.5-20.5-27-9.5-37T147 93zm-92 0q0 34 7.5 68t26 61.5T138 267t77 17q47 0 78-17.5t49.5-45 26-61.5 7.5-67-7.5-66.5-26-61-49.5-45T215-97t-78 17-49 44.5T62.5 26 55 93z"/><glyph glyph-name="uni2081" unicode="₁" horiz-adv-x="305" d="M132-89v233H43v60q43 1 68 23.5t30 49.5h82V-89h-91z"/><glyph glyph-name="uni2082" unicode="₂" horiz-adv-x="392" d="M62 134q-3 15-3 30 0 24 9 46t26.5 38.5T138 275t59 10 58.5-9.5 43-26 26.5-38 9-45.5q0-35-20-62.5T259 55l-71-43q-17-12-20-25h169v-76H56v12q0 48 19.5 85.5T143 75l60 36q41 24 41 56 0 17-12 30.5T195 211q-24 0-38-14.5T143 159q0-4 .5-11t2.5-13z"/><glyph glyph-name="uni2083" unicode="₃" horiz-adv-x="412" d="M135 37q4-25 22.5-41.5T204-21t44.5 14.5T265 28q0 28-19 39.5T204 79q-16 0-31-6l-32 61 91 69H68v75h279v-72l-94-69q45-5 74-33t29-77q0-25-10.5-47.5t-30-39T268-86t-63-10q-33 0-59.5 9.5t-45 24.5-30 34.5T55 13z"/><glyph glyph-name="uni2084" unicode="₄" horiz-adv-x="443" d="M55 70l172 207h99V55h62v-73h-62v-71h-90v71H55v88zm181 110L133 55h103v125z"/><glyph glyph-name="uni2085" unicode="₅" horiz-adv-x="404" d="M134 32q5-24 23-38t43-14q26 0 42.5 13.5T259 33q0 29-17 42.5T199 89q-18 0-32.5-6.5T141 65L67 89l47 188h214v-75H170l-19-73q13 13 32.5 19t39.5 6q57 0 91.5-31.5T349 35q0-27-10-51t-28.5-41.5-46.5-28T200-96q-29 0-53.5 8.5T103-65 71.5-32.5 55 7z"/><glyph glyph-name="uni2086" unicode="₆" horiz-adv-x="418" d="M329 200q-29 12-64 12-43 0-76-22t-43-70q14 17 37.5 27t49.5 10q57 0 93.5-31T363 35q0-29-11.5-53.5T320-60t-48-26.5-61-9.5q-30 0-58.5 10.5t-50 31.5T68-1.5 55 72q0 49 15.5 89t43 67.5 65 42.5 80.5 15q24 0 47-5t41-13zM151 33q0-26 19-40.5T212-22t41.5 14.5T272 33t-18.5 41T212 89t-42-15-19-41z"/><glyph glyph-name="uni2087" unicode="₇" horiz-adv-x="413" d="M358 200q-13-10-35.5-31T277 113t-42-85-25-117h-96q6 71 27.5 125t44.5 91q27 43 60 74H55v76h303v-77z"/><glyph glyph-name="uni2088" unicode="₈" horiz-adv-x="415" d="M208 130q24 0 37 12.5t13 30.5q0 16-12.5 28T208 213t-38-12-13-28q0-18 13.5-30.5T208 130zm0-154q31 0 45.5 13T268 22q0 18-15 31t-45 13-45.5-13T147 22q0-20 15-33t46-13zm0-73q-72 0-111.5 30.5T57 12q0 29 19.5 52.5T128 99q-29 11-44.5 33T68 180q0 46 38 75.5T208 285t101.5-29.5T347 180q0-26-15-48t-44-33q32-11 51.5-34T359 14q0-48-39-79.5T208-97z"/><glyph glyph-name="uni2089" unicode="₉" horiz-adv-x="417" d="M91-9q14-5 29.5-9t32.5-4q45 0 79 21t42 71q-14-17-38-27t-50-10q-27 0-50.5 8T94 64.5 65.5 103 55 155t11 53 31.5 41.5 48.5 27 61 9.5q30 0 58-10.5t49.5-30.5 34.5-51 13-71q0-53-15-94t-41-68.5-63-42T163-96q-24 0-47.5 4.5T74-79zm174 165q0 26-18 41t-43 15q-24 0-42-15t-18-41 18-41 42-15q25 0 43 15t18 41z"/><glyph glyph-name="Euro" unicode="€" horiz-adv-x="683" d="M140 287q-1 7-1.5 16.5T138 323q0 12 .5 20t1.5 16H63v87h94q18 52 50 92.5t73.5 68.5 90 42 98.5 14q104 0 171-46l-46-93q-25 18-56.5 26.5T469 559q-58 0-108.5-27.5T282 446h275l-42-87H259q-1-6-1.5-14.5T257 324q0-14 .5-23t1.5-14h226l-41-88H283q28-55 77-81.5T468 91q42 0 77.5 12t61.5 36l56-86q-35-30-85-49T468-15q-51 0-99 14t-89 41-72.5 67-49.5 92H63v88h77z"/><glyph glyph-name="uni2113" unicode="ℓ" horiz-adv-x="419" d="M32 266q5 1 23.5 6.5T100 290v211q0 76 40.5 119.5T244 664q67 0 105-40.5T387 508q0-38-12-76t-34.5-74.5T285 288t-75-60v-52q0-42 21-60t47-18q22 0 38 3.5t27 8.5 17 9 8 6V25q-1-2-6.5-6.5T344 8.5 313.5-1 268-5q-83 0-125.5 45T100 156v22q-31-10-68-16v104zm246 245q0 52-33 52-14 0-24.5-12.5T210 504V359q29 28 48.5 65t19.5 87z"/><glyph glyph-name="trademark" unicode="™" horiz-adv-x="868" d="M225 632V344h-86v288H32v77h300v-77H225zm501-288v227l-95-227h-64l-93 224V344h-84v365h115l97-232 95 232h111V344h-82z"/><glyph glyph-name="Omega" unicode="Ω" horiz-adv-x="788" d="M394 614q-42 0-82.5-14.5t-72.5-43-51.5-70T168 391q0-48 16.5-86.5T227 237t59.5-47.5T355 164V0H51v109h189q-38 15-73 41t-62 62.5-43.5 83T45 396q0 76 29 137t77 103.5 111 65T394 724t132-22.5 111-65T714 533t29-137q0-54-16.5-100.5t-43.5-83-62.5-62.5-72.5-41h189V0H433v164q34 7 68 25.5t60 47.5 42.5 67.5T620 391q0 54-19.5 95.5t-51.5 70-72.5 43T394 614z"/><glyph glyph-name="uni2160" unicode="Ⅰ" horiz-adv-x="501" d="M451 544H310V104h141V0H50v104h142v440H50v104h401V544z"/><glyph glyph-name="uni2161" unicode="Ⅱ" horiz-adv-x="779" d="M729 0H50v104h138v440H50v104h679V544H591V104h138V0zM472 544H307V104h165v440z"/><glyph glyph-name="uni2162" unicode="Ⅲ" horiz-adv-x="1053" d="M1003 0H50v104h138v440H50v104h953V544H865V104h138V0zM746 544H586V104h160v440zM307 104h160v440H307V104z"/><glyph glyph-name="uni2163" unicode="Ⅳ" horiz-adv-x="1032" d="M982 0H50v104h131v440H50v104h931V544H869L723 104h259V0zM299 104h226L379 544h-80V104zm449 440H504l122-389z"/><glyph glyph-name="uni2164" unicode="Ⅴ" horiz-adv-x="806" d="M756 544H647L501 104h252V0H53v104h250L156 544H50v104h706V544zm-230 0H282l122-389z"/><glyph glyph-name="uni2165" unicode="Ⅵ" horiz-adv-x="1030" d="M980 0H50v104h256L159 544H50v104h930V544H849V104h131V0zM504 104h227v440h-79zm26 440H284l123-389z"/><glyph glyph-name="uni2166" unicode="Ⅶ" horiz-adv-x="1313" d="M1263 0H50v104h255L159 544H50v104h1213V544h-138V104h138V0zm-256 544H849V104h158v440zM503 104h227v440h-79zm26 440H284l122-389z"/><glyph glyph-name="uni2167" unicode="Ⅷ" horiz-adv-x="1570" d="M1520 0H50v104h253L160 544H50v104h1470V544h-134V104h134V0zM500 104h226v440h-82zm615 0h153v440h-153V104zm-270 0h152v440H845V104zM523 544H284l120-389z"/><glyph glyph-name="uni2168" unicode="Ⅸ" horiz-adv-x="1004" d="M954 0H50v104h131v440H50v104h903V544H849L688 318l155-214h111V0zM382 544h-83V104h87l158 215zm234-138l96 138H521zm-93-302h181l-90 129z"/><glyph glyph-name="uni2169" unicode="Ⅹ" horiz-adv-x="774" d="M724 544H619L458 318l155-214h111V0H50v104h107l158 215-162 225H50v104h674V544zM387 406l96 138H292zm-94-302h182l-90 129z"/><glyph glyph-name="uni216C" unicode="Ⅼ" horiz-adv-x="656" d="M606 0H50v104h123v440H50v104h375V544H292V104h199v183h115V0z"/><glyph glyph-name="uni216D" unicode="Ⅽ" horiz-adv-x="730" d="M680 0H563v64q-29-35-74-57T376-15q-65 0-124 23.5T148 76 76.5 182.5 50 324t27 142.5 72 107 104 67T375 664q66 0 110.5-21t73.5-54v61h117V416H559q-3 28-15.5 53.5t-35 45-55 31.5-75.5 12q-41 0-79-14t-67.5-43-47-73T167 324q0-58 17-101t46.5-72 68-43.5T379 93q47 0 81 14t56 35.5 33 47 14 49.5h117V0z"/><glyph glyph-name="uni216E" unicode="Ⅾ" horiz-adv-x="739" d="M381 648q66-1 122-23t97.5-63.5 65-101.5T689 323q0-78-24-138T598.5 84t-100-62.5T374 0H50v104h128v440H50v104h331zm-8-544q40 0 76 14t62.5 41.5 42 68.5 15.5 95q0 55-16 96.5t-43 69-63.5 41.5-77.5 14h-72V104h76z"/><glyph glyph-name="uni216F" unicode="Ⅿ" horiz-adv-x="1059" d="M377 0H50v104h121v440H50v104h288l189-469 188 469h294V544H885V104h124V0H678v104h91v374L572 3h-90L287 477V104h90V0z"/><glyph glyph-name="arrowleft" unicode="←" horiz-adv-x="1046" d="M-5 292l244 208V343h742V242H239V86z"/><glyph glyph-name="arrowup" unicode="↑" horiz-adv-x="469" d="M467 543H302v-690H202v690H35l217 257z"/><glyph glyph-name="arrowright" unicode="→" horiz-adv-x="1058" d="M745 68v174H29v100h716v175l274-225z"/><glyph glyph-name="arrowdown" unicode="↓" horiz-adv-x="465" d="M219-157L-6 105h174v686h101V105h174z"/><glyph glyph-name="uni2196" unicode="↖" horiz-adv-x="875" d="M374 709L253 587 780 61l-71-71-527 526L60 393v316h314z"/><glyph glyph-name="uni2197" unicode="↗" horiz-adv-x="764" d="M669 709V393L546 516 20-10l-71 71 527 526-121 122h314z"/><glyph glyph-name="uni2198" unicode="↘" horiz-adv-x="865" d="M456 0l121 122L50 648l71 71 526-527 123 124V0H456z"/><glyph glyph-name="uni2199" unicode="↙" horiz-adv-x="755" d="M40 0v316l122-124 527 527 71-71-527-526L354 0H40z"/><glyph glyph-name="uni21A9" unicode="↩" horiz-adv-x="848" d="M401 657h193q51 0 94-16.5t74-45 48-68 17-84.5q0-44-17-83t-47-68-72.5-46-93.5-17H231V73L-13 280l244 208V330h362q58 0 95 31.5t37 81.5q0 54-38 84t-97 30H401v100z"/><glyph glyph-name="uni21B0" unicode="↰" horiz-adv-x="791" d="M43 517l245 207V567h418V0H606v467H288V310z"/><glyph glyph-name="uni21B1" unicode="↱" horiz-adv-x="736" d="M35 0v567h452v157l244-207-244-207v157H135V0H35z"/><glyph glyph-name="uni21B2" unicode="↲" horiz-adv-x="766" d="M685 709V142H232V-15L-12 192l244 207V242h352v467h101z"/><glyph glyph-name="uni21B3" unicode="↳" horiz-adv-x="846" d="M775 192L531-15v157H78v567h101V242h352v157z"/><glyph glyph-name="uni21B4" unicode="↴" horiz-adv-x="806" d="M58 709h572V225h157L581-16 374 225h156v384H58v100z"/><glyph glyph-name="uni21C6" unicode="⇆" horiz-adv-x="1139" d="M60 549l244 208V599h756V498H304V342zM840-41v157H85v100h755v157l244-207z"/><glyph glyph-name="partialdiff" unicode="∂" horiz-adv-x="617" d="M250 617q-23 0-61.5-6T107 584l-40 92q48 26 98.5 36t92.5 10q31 0 66.5-6t70-21.5 67-42.5 57-68.5 39-99.5T572 348q0-80-17.5-147t-53-115T413 11.5 289-15q-48 0-92.5 15t-79 45T62 120 41 225q0 55 20.5 98t54.5 72.5 78 45 91 15.5q65 0 105-17.5t60-39.5q-6 60-23 101.5T384.5 568t-60 37.5T250 617zm58-261q-38 0-66-10.5T195.5 316t-28-44-9.5-53q0-31 11.5-54.5t31-40 43.5-25 50-8.5q42 0 72 18t49 46.5 28 65 9 72.5q-24 31-61.5 47T308 356z"/><glyph glyph-name="Delta" unicode="∆" horiz-adv-x="678" d="M274 709h129L678 0H0zM167 111h343L338 576z"/><glyph glyph-name="product" unicode="∏" horiz-adv-x="686" d="M483 0v600H205V0H85v709h516V0H483z"/><glyph glyph-name="summation" unicode="∑" horiz-adv-x="568" d="M40 107l263 248L40 602v107h507V598H203l260-243-269-244h353V0H40v107z"/><glyph glyph-name="minus" unicode="−" horiz-adv-x="555" d="M52 244v96h451v-96H52z"/><glyph glyph-name="uni2215" unicode="∕" horiz-adv-x="426" d="M107-5H0l319 658h107z"/><glyph glyph-name="uni2219" unicode="∙" horiz-adv-x="284" d="M65 298q0 32 23 55t55 23q33 0 56-23t23-55q0-33-23-55t-56-22q-32 0-55 22t-23 55z"/><glyph glyph-name="radical" unicode="√" horiz-adv-x="683" d="M590 773L329 0H223L33 534h120l124-364 231 704h208V773H590z"/><glyph glyph-name="infinity" unicode="∞" horiz-adv-x="818" d="M408 213q-45-50-87.5-75.5T227 112q-40 0-73.5 13.5t-58 37.5T57 219.5 43 290t14 71 38.5 57 58 37.5T227 469q50 0 95.5-26t87.5-77q44 50 88 76.5t93 26.5q40 0 73.5-13.5t58-37.5 38-57 13.5-71-13.5-70.5-38-56.5-58.5-37.5-74-13.5q-99 0-182 101zM229 369q-38 0-60.5-23T146 289t22.5-56.5T229 210q33 0 61 21.5t56 55.5q-29 35-56 58.5T229 369zm359-159q38 0 60.5 22.5T671 289t-22.5 57-60.5 23q-33 0-60-22.5T471 290q29-35 56.5-57.5T588 210z"/><glyph glyph-name="integral" unicode="∫" horiz-adv-x="332" d="M109 536q0 81 46 127t127 46h45V606h-38q-29 0-47-18t-18-53V-26q0-81-44.5-127.5T54-200H5v103h39q29 0 47 19t18 54v560z"/><glyph glyph-name="approxequal" unicode="≈" horiz-adv-x="583" d="M550 395q-28-45-68-68.5T395 303q-26 0-51.5 7T290 333l-47 26q-29 15-58 15-24 0-46.5-11.5T97 328l-64 54q29 45 68 69t85 24q29 0 53-7.5t53-22.5l47-25q20-11 34.5-14.5T404 402q48 0 84 45zm0-198q-29-45-68-68.5T397 105q-27 0-53 7t-54 23l-47 26q-14 8-27.5 11t-27.5 4q-26 0-48.5-11T97 130l-64 54q29 45 68 69t86 24q49 0 105-30l47-25q16-8 30.5-13t32.5-5q24 0 46 11t40 35z"/><glyph glyph-name="notequal" unicode="≠" horiz-adv-x="598" d="M256 146l-67-98H79l67 98H62v95h150l70 102H62v94h285l66 95h109l-66-95h81v-94H392l-70-102h215v-95H256z"/><glyph glyph-name="lessequal" unicode="≤" horiz-adv-x="544" d="M482 143V47H60v96h422zM60 408l422 141v-99l-292-89 292-91v-99L60 311v97z"/><glyph glyph-name="greaterequal" unicode="≥" horiz-adv-x="544" d="M484 143V47H62v96h422zm0 168L62 171v98l292 90-292 90v100l422-141v-97z"/><glyph glyph-name="dotmath" unicode="⋅" horiz-adv-x="284" d="M65 298q0 32 23 55t55 23q33 0 56-23t23-55q0-33-23-55t-56-22q-32 0-55 22t-23 55z"/><glyph glyph-name="uni24C5" unicode="Ⓟ" horiz-adv-x="818" d="M124 355q0-62 22-116t60-93.5 90-62T408 61t111.5 22.5 90 62T670 239t22 116-22 115.5-60.5 93-90 62T408 648t-112-22.5-90-62-60-93T124 355zm-82 0q0 76 28.5 143t78 117.5T265 695t143 29 143-29 117-79.5T747 498t29-143q0-77-29-144T668 93.5 551 14 408-15 265 14 148.5 93.5 70.5 211 42 355zm390 14q30 0 47 15.5t17 41.5-17 42-47 16h-61V369h61zm-61-73V156h-86v401h162q29 0 54-10.5t43.5-28 29-41.5 10.5-51-10.5-50.5-29-41.5-43.5-28-54-10h-76z"/><glyph glyph-name="filledbox" unicode="■" horiz-adv-x="914" d="M105 709h704V0H105v709z"/><glyph glyph-name="H22073" unicode="□" horiz-adv-x="914" d="M105 0v709h704V0H105zm100 95h503v518H205V95z"/><glyph glyph-name="uni25AF" unicode="▯" horiz-adv-x="574" d="M75 709h424V0H75v709zM403 96v517H171V96h232z"/><glyph glyph-name="triagup" unicode="▲" horiz-adv-x="838" d="M838 0H0l420 724z"/><glyph glyph-name="uni25B3" unicode="△" horiz-adv-x="837" d="M837 0H0l420 724zM419 525L172 95h493z"/><glyph glyph-name="lozenge" unicode="◊" horiz-adv-x="590" d="M295 123l134 231-134 232-135-232zm-58 586h116l205-355L353 0H237L32 354z"/><glyph glyph-name="circle" unicode="○" horiz-adv-x="821" d="M40 354q0 77 29 144.5t79 118T265.5 696 410 725t144.5-29 118-79.5 79.5-118T781 354t-29-144.5T672.5 92t-118-79T410-16 265.5 13 148 92 69 209.5 40 354zm101 0q0-57 21-106.5t57.5-86.5 85.5-58.5T410 81t105 21.5 85.5 58.5 57.5 86.5T679 354t-21 106.5-57.5 86.5-85.5 58.5T410 627t-105-21.5-85.5-58.5-57.5-86.5T141 354z"/><glyph glyph-name="H18533" unicode="●" horiz-adv-x="821" d="M40 354q0 77 29 144.5t79 118T265.5 696 410 725t144.5-29 118-79.5 79.5-118T781 354t-29-144.5T672.5 92t-118-79T410-16 265.5 13 148 92 69 209.5 40 354z"/><glyph glyph-name="uni262E" unicode="☮" horiz-adv-x="818" d="M776 355q0-77-29-144T668.5 93.5 551.5 14 408-15 265 14 148.5 93.5 70.5 211 42 355q0 76 28.5 143t78 117.5T265 695t143 29 143.5-29 117-79.5T747 498t29-143zm-99 0q0 52-17 97.5T613.5 534t-70 60-87.5 33V412l192-179q14 27 21.5 57.5T677 355zm-539 0q0-66 28-120l191 177v214q-47-9-87.5-33T200 533t-45.5-81.5T138 355zM456 82q39 7 73.5 25t62.5 45L456 282V82zm-235 71q56-57 136-71v200z"/><glyph glyph-name="uni2713" unicode="✓" horiz-adv-x="954" d="M308-17L20 304l73 68 219-239 551 594 71-71z"/><glyph glyph-name="uni2715" unicode="✕" horiz-adv-x="756" d="M377 284L92-5 22 66l284 289L22 642l72 71 283-287 282 287 71-71-283-287L734 66 663-5z"/><glyph glyph-name="uni2780" unicode="➀" horiz-adv-x="821" d="M125 355q0-62 22-116t60.5-93.5 90.5-62T410 61t111.5 22.5 90 62T672 239t22 116-22 115.5-60.5 93-90 62T410 648t-112-22.5-90.5-62-60.5-93T125 355zm-82 0q0 76 29 143t78.5 117.5T267 695t143 29 143-29 117-79.5T749 498t29-143q0-77-29-144T670 93.5 553 14 410-15 267 14 150.5 93.5 72 211 43 355zm337-183v233h-89v60q43 1 68 23.5t30 49.5h82V172h-91z"/><glyph glyph-name="uni2781" unicode="➁" horiz-adv-x="821" d="M125 355q0-62 22-116t60.5-93.5 90.5-62T410 61t111.5 22.5 90 62T672 239t22 116-22 115.5-60.5 93-90 62T410 648t-112-22.5-90.5-62-60.5-93T125 355zm-82 0q0 76 29 143t78.5 117.5T267 695t143 29 143-29 117-79.5T749 498t29-143q0-77-29-144T670 93.5 553 14 410-15 267 14 150.5 93.5 72 211 43 355zm228 48q-3 15-3 30 0 24 9 46t26.5 38.5T347 544t59 10 58.5-9.5 43-26 26.5-38 9-45.5q0-35-20-62.5T468 324l-71-43q-17-12-20-25h169v-76H265v12q0 48 19.5 85.5T352 344l60 36q41 24 41 56 0 17-12 30.5T404 480q-24 0-38-14.5T352 428q0-4 .5-11t2.5-13z"/><glyph glyph-name="uni2782" unicode="➂" horiz-adv-x="821" d="M125 355q0-62 22-116t60.5-93.5 90.5-62T410 61t111.5 22.5 90 62T672 239t22 116-22 115.5-60.5 93-90 62T410 648t-112-22.5-90.5-62-60.5-93T125 355zm-82 0q0 76 29 143t78.5 117.5T267 695t143 29 143-29 117-79.5T749 498t29-143q0-77-29-144T670 93.5 553 14 410-15 267 14 150.5 93.5 72 211 43 355zm291-60q4-25 22.5-41.5T403 237t44.5 14.5T464 286q0 28-19 39.5T403 337q-16 0-31-6l-32 61 91 69H267v75h279v-72l-94-69q45-5 74-33t29-77q0-25-10.5-47.5t-30-39T467 172t-63-10q-33 0-59.5 9.5t-45 24.5-30 34.5T254 271z"/><glyph glyph-name="uni2783" unicode="➃" horiz-adv-x="821" d="M125 355q0-62 22-116t60.5-93.5 90.5-62T410 61t111.5 22.5 90 62T672 239t22 116-22 115.5-60.5 93-90 62T410 648t-112-22.5-90.5-62-60.5-93T125 355zm-82 0q0 76 29 143t78.5 117.5T267 695t143 29 143-29 117-79.5T749 498t29-143q0-77-29-144T670 93.5 553 14 410-15 267 14 150.5 93.5 72 211 43 355zm190-18l172 207h99V322h62v-73h-62v-71h-90v71H233v88zm181 110L311 322h103v125z"/><glyph glyph-name="uni2784" unicode="➄" horiz-adv-x="821" d="M125 355q0-62 22-116t60.5-93.5 90.5-62T410 61t111.5 22.5 90 62T672 239t22 116-22 115.5-60.5 93-90 62T410 648t-112-22.5-90.5-62-60.5-93T125 355zm-82 0q0 76 29 143t78.5 117.5T267 695t143 29 143-29 117-79.5T749 498t29-143q0-77-29-144T670 93.5 553 14 410-15 267 14 150.5 93.5 72 211 43 355zm290-67q5-24 23-38t43-14q26 0 42.5 13.5T458 289q0 29-17 42.5T398 345q-18 0-32.5-6.5T340 321l-74 24 47 188h214v-75H369l-19-73q13 13 32.5 19t39.5 6q57 0 91.5-31.5T548 291q0-27-10-51t-28.5-41.5-46.5-28-64-10.5q-29 0-53.5 8.5T302 191t-31.5 32.5T254 263z"/><glyph glyph-name="uni2785" unicode="➅" horiz-adv-x="821" d="M125 355q0-62 22-116t60.5-93.5 90.5-62T410 61t111.5 22.5 90 62T672 239t22 116-22 115.5-60.5 93-90 62T410 648t-112-22.5-90.5-62-60.5-93T125 355zm-82 0q0 76 29 143t78.5 117.5T267 695t143 29 143-29 117-79.5T749 498t29-143q0-77-29-144T670 93.5 553 14 410-15 267 14 150.5 93.5 72 211 43 355zm474 106q-29 12-64 12-43 0-76-22t-43-70q14 17 37.5 27t49.5 10q57 0 93.5-31t36.5-91q0-29-11.5-53.5T508 201t-48-26.5-61-9.5q-30 0-58.5 10.5t-50 31.5-34.5 52.5-13 73.5q0 49 15.5 89t43 67.5 65 42.5 80.5 15q24 0 47-5t41-13zM339 294q0-26 19-40.5t42-14.5 41.5 14.5T460 294t-18.5 41-41.5 15-42-15-19-41z"/><glyph glyph-name="uni2786" unicode="➆" horiz-adv-x="821" d="M125 355q0-62 22-116t60.5-93.5 90.5-62T410 61t111.5 22.5 90 62T672 239t22 116-22 115.5-60.5 93-90 62T410 648t-112-22.5-90.5-62-60.5-93T125 355zm-82 0q0 76 29 143t78.5 117.5T267 695t143 29 143-29 117-79.5T749 498t29-143q0-77-29-144T670 93.5 553 14 410-15 267 14 150.5 93.5 72 211 43 355zm518 99q-13-10-35.5-31T480 367t-42-85-25-117h-96q6 71 27.5 125t44.5 91q27 43 60 74H258v76h303v-77z"/><glyph glyph-name="uni2787" unicode="➇" horiz-adv-x="821" d="M125 355q0-62 22-116t60.5-93.5 90.5-62T410 61t111.5 22.5 90 62T672 239t22 116-22 115.5-60.5 93-90 62T410 648t-112-22.5-90.5-62-60.5-93T125 355zm-82 0q0 76 29 143t78.5 117.5T267 695t143 29 143-29 117-79.5T749 498t29-143q0-77-29-144T670 93.5 553 14 410-15 267 14 150.5 93.5 72 211 43 355zm367 37q24 0 37 12.5t13 30.5q0 16-12.5 28T410 475t-38-12-13-28q0-18 13.5-30.5T410 392zm0-154q31 0 45.5 13t14.5 33q0 18-15 31t-45 13-45.5-13-15.5-31q0-20 15-33t46-13zm0-73q-72 0-111.5 30.5T259 274q0 29 19.5 52.5T330 361q-29 11-44.5 33T270 442q0 46 38 75.5T410 547t101.5-29.5T549 442q0-26-15-48t-44-33q32-11 51.5-34t19.5-51q0-48-39-79.5T410 165z"/><glyph glyph-name="uni2788" unicode="➈" horiz-adv-x="821" d="M125 355q0-62 22-116t60.5-93.5 90.5-62T410 61t111.5 22.5 90 62T672 239t22 116-22 115.5-60.5 93-90 62T410 648t-112-22.5-90.5-62-60.5-93T125 355zm-82 0q0 76 29 143t78.5 117.5T267 695t143 29 143-29 117-79.5T749 498t29-143q0-77-29-144T670 93.5 553 14 410-15 267 14 150.5 93.5 72 211 43 355zm254-104q14-5 29.5-9t32.5-4q45 0 79 21t42 71q-14-17-38-27t-50-10q-27 0-50.5 8T300 324.5 271.5 363 261 415t11 53 31.5 41.5 48.5 27 61 9.5q30 0 58-10.5t49.5-30.5 34.5-51 13-71q0-53-15-94t-41-68.5-63-42-80-14.5q-24 0-47.5 4.5T280 181zm174 165q0 26-18 41t-43 15q-24 0-42-15t-18-41 18-41 42-15q25 0 43 15t18 41z"/><glyph glyph-name="uniE020" unicode="" horiz-adv-x="776" d="M15 225h157v484h572V609H273V225h156L222-16z"/><glyph glyph-name="uniE021" unicode="" horiz-adv-x="1097" d="M40 355h143q0 77 29.5 144T292 616t117 79 144 29q48 0 93-11.5t84-32.5l-45-90q-62 34-131 34-56 0-105.5-21t-86-57.5T305 460t-21-105h153L239 122zm881-2q0-77-29.5-144T812 92.5 694.5 14 551-15q-48 0-92.5 11.5T374 29l45 90q62-34 132-34 56 0 105 21t85 57.5 57 85.5 21 105H669l199 232 199-233H921z"/><glyph glyph-name="uniE022" unicode="" horiz-adv-x="953" d="M729 586l199-232H786q0-77-29-144T678 93 560.5 14 416-15 272 14 155 93 76 210 47 354t29 144.5T155 616t117 79 144 29q91 0 169-40l-42-91q-59 31-126 31-56 0-105-21t-85.5-57.5-57.5-86T148 354t21-105.5 57.5-86.5 85.5-58 105-21 105 21 85 58 57 86.5T685 354H531z"/><glyph glyph-name="uniFB00" unicode="ﬀ" horiz-adv-x="670" d="M611 625q-11 0-24-3t-23.5-11.5-17.5-23-7-36.5v-64h113V386H539V0H422v386H219V0H102v386H17v101h85v67q0 41 12.5 73.5t35 55T203 717t69 12q22 0 38.5-3.5T333 719v-99q-5 2-15 3.5t-27 1.5q-11 0-24-3t-23.5-11.5-17.5-23-7-36.5v-64h203v67q0 41 12.5 73.5t35 55T523 717t69 12q22 0 38.5-3.5T653 719v-99q-5 2-15 3.5t-27 1.5z"/><glyph glyph-name="fi" unicode="ﬁ" horiz-adv-x="619" d="M272 729q22 0 38.5-3.5T333 719v-99q-5 2-15 3.5t-27 1.5q-11 0-24-3t-23.5-11.5-17.5-23-7-36.5v-64h324V0H429v386H219V0H102v386H17v101h85v67q0 41 12.5 73.5t35 55T203 717t69 12zm139-70q0 32 21.5 54t53.5 22 54-22 22-54q0-31-22-53t-54-22-53.5 22-21.5 53z"/><glyph glyph-name="fl" unicode="ﬂ" horiz-adv-x="617" d="M291 625q-11 0-24-3t-23.5-11.5-17.5-23-7-36.5v-64h208v237h115V0H427v386H219V0H102v386H17v101h85v67q0 41 12.5 73.5t35 55T203 717t69 12q22 0 38.5-3.5T333 719v-99q-5 2-15 3.5t-27 1.5z"/><glyph glyph-name="uniFB03" unicode="ﬃ" horiz-adv-x="940" d="M732 659q0 32 22 54t53 22q32 0 54-22t22-54q0-31-22-53t-54-22q-31 0-53 22t-22 53zm-121-34q-11 0-24-3t-23.5-11.5-17.5-23-7-36.5v-64h326V0H750v386H539V0H422v386H219V0H102v386H17v101h85v67q0 41 12.5 73.5t35 55T203 717t69 12q22 0 38.5-3.5T333 719v-99q-5 2-15 3.5t-27 1.5q-12 0-24.5-3t-23-11.5-17.5-23-7-36.5v-64h203v67q0 41 12.5 73.5t35 55T523 717t69 12q22 0 38.5-3.5T653 719v-99q-5 2-15 3.5t-27 1.5z"/><glyph glyph-name="uniFB04" unicode="ﬄ" horiz-adv-x="940" d="M611 625q-11 0-24-3t-23.5-11.5-17.5-23-7-36.5v-64h211v237h115V0H750v386H539V0H422v386H219V0H102v386H17v101h85v67q0 41 12.5 73.5t35 55T203 717t69 12q22 0 38.5-3.5T333 719v-99q-5 2-15 3.5t-27 1.5q-11 0-24-3t-23.5-11.5-17.5-23-7-36.5v-64h203v67q0 41 12.5 73.5t35 55T523 717t69 12q22 0 38.5-3.5T653 719v-99q-5 2-15 3.5t-27 1.5z"/><glyph glyph-name="uniFEFF" horiz-adv-x="0"/><glyph glyph-name="zero.numr" horiz-adv-x="431" d="M147 465q0-20 2.5-40t9.5-36.5 20.5-27T215 351t35.5 10.5 21 27T281 425t2 40q0 19-2 39.5t-9.5 37.5-21 27.5T215 580t-35.5-10.5-20.5-27-9.5-37T147 465zm-92 0q0 34 7.5 68t26 61.5T138 639t77 17q47 0 78-17.5t49.5-45 26-61.5 7.5-67-7.5-66.5-26-61-49.5-45-78-17.5-78 17-49 44.5T62.5 398 55 465z"/><glyph glyph-name="one.numr" horiz-adv-x="308" d="M132 282v233H43v60q43 1 68 23.5t30 49.5h82V282h-91z"/><glyph glyph-name="two.numr" horiz-adv-x="392" d="M62 505q-3 15-3 30 0 24 9 46t26.5 38.5T138 646t59 10 58.5-9.5 43-26 26.5-38 9-45.5q0-35-20-62.5T259 426l-71-43q-17-12-20-25h169v-76H56v12q0 48 19.5 85.5T143 446l60 36q41 24 41 56 0 17-12 30.5T195 582q-24 0-38-14.5T143 530q0-4 .5-11t2.5-13z"/><glyph glyph-name="three.numr" horiz-adv-x="412" d="M135 407q4-25 22.5-41.5T204 349t44.5 14.5T265 398q0 28-19 39.5T204 449q-16 0-31-6l-32 61 91 69H68v75h279v-72l-94-69q45-5 74-33t29-77q0-25-10.5-47.5t-30-39T268 284t-63-10q-33 0-59.5 9.5t-45 24.5-30 34.5T55 383z"/><glyph glyph-name="four.numr" horiz-adv-x="443" d="M55 441l172 207h99V426h62v-73h-62v-71h-90v71H55v88zm181 110L133 426h103v125z"/><glyph glyph-name="five.numr" horiz-adv-x="388" d="M134 403q5-24 23-38t43-14q26 0 42.5 13.5T259 404q0 29-17 42.5T199 460q-18 0-32.5-6.5T141 436l-74 24 47 188h214v-75H170l-19-73q13 13 32.5 19t39.5 6q57 0 91.5-31.5T349 406q0-27-10-51t-28.5-41.5-46.5-28-64-10.5q-29 0-53.5 8.5T103 306t-31.5 32.5T55 378z"/><glyph glyph-name="six.numr" horiz-adv-x="418" d="M329 570q-29 12-64 12-43 0-76-22t-43-70q14 17 37.5 27t49.5 10q57 0 93.5-31t36.5-91q0-29-11.5-53.5T320 310t-48-26.5-61-9.5q-30 0-58.5 10.5t-50 31.5T68 368.5 55 442q0 49 15.5 89t43 67.5 65 42.5 80.5 15q24 0 47-5t41-13zM151 403q0-26 19-40.5t42-14.5 41.5 14.5T272 403t-18.5 41-41.5 15-42-15-19-41z"/><glyph glyph-name="seven.numr" horiz-adv-x="413" d="M358 571q-13-10-35.5-31T277 484t-42-85-25-117h-96q6 71 27.5 125t44.5 91q27 43 60 74H55v76h303v-77z"/><glyph glyph-name="eight.numr" horiz-adv-x="415" d="M208 501q24 0 37 12.5t13 30.5q0 16-12.5 28T208 584t-38-12-13-28q0-18 13.5-30.5T208 501zm0-154q31 0 45.5 13t14.5 33q0 18-15 31t-45 13-45.5-13-15.5-31q0-20 15-33t46-13zm0-73q-72 0-111.5 30.5T57 383q0 29 19.5 52.5T128 470q-29 11-44.5 33T68 551q0 46 38 75.5T208 656t101.5-29.5T347 551q0-26-15-48t-44-33q32-11 51.5-34t19.5-51q0-48-39-79.5T208 274z"/><glyph glyph-name="nine.numr" horiz-adv-x="417" d="M91 360q14-5 29.5-9t32.5-4q45 0 79 21t42 71q-14-17-38-27t-50-10q-27 0-50.5 8T94 433.5 65.5 472 55 524t11 53 31.5 41.5 48.5 27 61 9.5q30 0 58-10.5t49.5-30.5 34.5-51 13-71q0-53-15-94t-41-68.5-63-42-80-14.5q-24 0-47.5 4.5T74 290zm174 165q0 26-18 41t-43 15q-24 0-42-15t-18-41 18-41 42-15q25 0 43 15t18 41z"/><glyph glyph-name="zero.dnom" horiz-adv-x="431" d="M147 184q0-20 2.5-40t9.5-36.5 20.5-27T215 70t35.5 10.5 21 27T281 144t2 40q0 19-2 39.5t-9.5 37.5-21 27.5T215 299t-35.5-10.5-20.5-27-9.5-37T147 184zm-92 0q0 34 7.5 68t26 61.5T138 358t77 17q47 0 78-17.5t49.5-45 26-61.5 7.5-67-7.5-66.5-26-61-49.5-45T215-6t-78 17-49 44.5T62.5 117 55 184z"/><glyph glyph-name="one.dnom" horiz-adv-x="305" d="M132 1v233H43v60q43 1 68 23.5t30 49.5h82V1h-91z"/><glyph glyph-name="two.dnom" horiz-adv-x="392" d="M62 224q-3 15-3 30 0 24 9 46t26.5 38.5T138 365t59 10 58.5-9.5 43-26 26.5-38 9-45.5q0-35-20-62.5T259 145l-71-43q-17-12-20-25h169V1H56v12q0 48 19.5 85.5T143 165l60 36q41 24 41 56 0 17-12 30.5T195 301q-24 0-38-14.5T143 249q0-4 .5-11t2.5-13z"/><glyph glyph-name="three.dnom" horiz-adv-x="412" d="M135 127q4-25 22.5-41.5T204 69t44.5 14.5T265 118q0 28-19 39.5T204 169q-16 0-31-6l-32 61 91 69H68v75h279v-72l-94-69q45-5 74-33t29-77q0-25-10.5-47.5t-30-39T268 4 205-6q-33 0-59.5 9.5t-45 24.5-30 34.5T55 103z"/><glyph glyph-name="four.dnom" horiz-adv-x="443" d="M55 160l172 207h99V145h62V72h-62V1h-90v71H55v88zm181 110L133 145h103v125z"/><glyph glyph-name="five.dnom" horiz-adv-x="404" d="M134 122q5-24 23-38t43-14q26 0 42.5 13.5T259 123q0 29-17 42.5T199 179q-18 0-32.5-6.5T141 155l-74 24 47 188h214v-75H170l-19-73q13 13 32.5 19t39.5 6q57 0 91.5-31.5T349 125q0-27-10-51t-28.5-41.5-46.5-28T200-6q-29 0-53.5 8.5T103 25 71.5 57.5 55 97z"/><glyph glyph-name="six.dnom" horiz-adv-x="418" d="M329 290q-29 12-64 12-43 0-76-22t-43-70q14 17 37.5 27t49.5 10q57 0 93.5-31t36.5-91q0-29-11.5-53.5T320 30 272 3.5 211-6q-30 0-58.5 10.5t-50 31.5T68 88.5 55 162q0 49 15.5 89t43 67.5 65 42.5 80.5 15q24 0 47-5t41-13zM151 123q0-26 19-40.5T212 68t41.5 14.5T272 123t-18.5 41-41.5 15-42-15-19-41z"/><glyph glyph-name="seven.dnom" horiz-adv-x="413" d="M358 290q-13-10-35.5-31T277 203t-42-85T210 1h-96q6 71 27.5 125t44.5 91q27 43 60 74H55v76h303v-77z"/><glyph glyph-name="eight.dnom" horiz-adv-x="415" d="M208 220q24 0 37 12.5t13 30.5q0 16-12.5 28T208 303t-38-12-13-28q0-18 13.5-30.5T208 220zm0-154q31 0 45.5 13t14.5 33q0 18-15 31t-45 13-45.5-13-15.5-31q0-20 15-33t46-13zm0-73Q136-7 96.5 23.5T57 102q0 29 19.5 52.5T128 189q-29 11-44.5 33T68 270q0 46 38 75.5T208 375t101.5-29.5T347 270q0-26-15-48t-44-33q32-11 51.5-34t19.5-51q0-48-39-79.5T208-7z"/><glyph glyph-name="nine.dnom" horiz-adv-x="417" d="M91 80q14-5 29.5-9t32.5-4q45 0 79 21t42 71q-14-17-38-27t-50-10q-27 0-50.5 8T94 153.5 65.5 192 55 244t11 53 31.5 41.5 48.5 27 61 9.5q30 0 58-10.5t49.5-30.5 34.5-51 13-71q0-53-15-94t-41-68.5-63-42T163-7q-24 0-47.5 4.5T74 10zm174 165q0 26-18 41t-43 15q-24 0-42-15t-18-41 18-41 42-15q25 0 43 15t18 41z"/><glyph glyph-name="space.frac" horiz-adv-x="49"/><glyph glyph-name="a.ordn" horiz-adv-x="425" d="M59 399q0 46 30 71.5t73 31.5l86 13q14 2 20 9t6 15q0 20-15 33.5T213 586q-30 0-47-17t-19-40l-81 17q2 21 12.5 41.5t29.5 36 45 25.5 60 10q40 0 68.5-10.5t46-28.5 25.5-41.5 8-49.5V360q0-21 1.5-36.5T365 305h-82q-1 2-2.5 13.5T279 347q-13-20-38-36t-64-16q-27 0-49 8.5t-37.5 23-23.5 33-8 39.5zm137-36q15 0 29 4t25 13.5 17.5 25.5 6.5 39v15l-82-12q-18-3-30.5-13.5T149 404q0-16 11.5-28.5T196 363z"/><glyph glyph-name="b.ordn" horiz-adv-x="499" d="M85 305v507h89V609q11 20 38.5 34t66.5 14q38 0 67.5-13.5T396 606t30.5-57 10.5-71q0-39-11.5-72T393 348.5t-50.5-38T276 297t-63 14-40 37v-43H85zm262 173q0 48-25 73.5T260 577q-36 0-61.5-25.5T173 478q0-49 25.5-75t61.5-26q37 0 62 26t25 75z"/><glyph glyph-name="c.ordn" horiz-adv-x="461" d="M241 576q-36 0-62.5-25.5T152 476q0-48 26.5-73.5T242 377q18 0 32 5.5t24 14 16 19 9 20.5l80-27q-6-21-19-41.5T350.5 331 303 305t-61-10q-38 0-71 13.5T114 346t-38 57.5T62 476q0 40 13.5 73.5t37.5 58 56.5 38T240 659q35 0 62-10t47-26 32.5-37 18.5-42l-81-28q-5 22-23.5 41T241 576z"/><glyph glyph-name="d.ordn" horiz-adv-x="501" d="M413 367q0-23 1.5-39.5T417 305h-87q-2 5-2.5 16.5T327 345q-13-20-38-34t-60-14q-37 0-67.5 13.5t-52.5 38T74.5 406 62 478q0 37 12 70t34 57 52.5 38 66.5 14q45 0 67.5-15t30.5-29v199h88V367zM153 477q0-47 24.5-74t62.5-27q37 0 61.5 27.5T326 478q0 48-24.5 73.5T240 577t-62-26-25-74z"/><glyph glyph-name="e.ordn" horiz-adv-x="457" d="M308 516q-1 26-19.5 48T229 586q-37 0-57-22.5T150 516h158zm85-112q-14-46-54-77.5T236 295q-35 0-67 12.5t-56.5 36-39 57.5T59 479q0 41 14 74t37.5 56.5 54 36.5 63.5 13q80 0 124.5-47.5T397 481q0-11-1-19t-1-9H148q2-35 27.5-58.5T237 371q34 0 53 16t27 39z"/><glyph glyph-name="f.ordn" horiz-adv-x="346" d="M208 572V305h-90v267H60v77h58v41q0 59 33.5 93t89.5 34q16 0 28.5-2.5T287 810v-76q-3 1-10 2.5t-20 1.5q-16 0-32.5-10T208 689v-40h78v-77h-78z"/><glyph glyph-name="g.ordn" horiz-adv-x="466" d="M143 308q5-29 27-48t56-19q45 0 68.5 23t23.5 74v28q-11-18-35-32t-62-14q-34 0-63 12.5t-50 35-33 53T63 487q0 34 11.5 65t32.5 53.5 50 36 64 13.5q42 0 66-14.5t34-33.5v42h86V341q0-35-10-67.5T365.5 216 310 176.5 228 162q-35 0-64 10t-50.5 27T79 238.5 62 286zm94 89q37 0 60 24t23 66-24 66-59 24q-36 0-60-24t-24-66 23-66 61-24z"/><glyph glyph-name="h.ordn" horiz-adv-x="481" d="M176 305H85v507h91V619q17 21 42.5 30t50.5 9q33 0 57-10.5t39.5-29.5 23.5-44 8-53V305h-90v201q0 30-15.5 50.5T241 577q-30 0-47-20.5T176 507V305z"/><glyph glyph-name="i.ordn" horiz-adv-x="282" d="M96 305v344h90V305H96zM85 763q0 23 16.5 39.5T141 819t39.5-16.5T197 763t-16.5-39.5T141 707t-39.5 16.5T85 763z"/><glyph glyph-name="j.ordn" horiz-adv-x="314" d="M137 649h91V274q0-50-28.5-81T121 162q-21 0-34 2.5T71 169v75q3-1 10-2t17-1q22 0 30.5 10.5T137 282v367zm-11 114q0 24 16.5 40.5T182 820t39.5-16.5T238 763q0-23-16.5-39T182 708t-39.5 16-16.5 39z"/><glyph glyph-name="k.ordn" horiz-adv-x="448" d="M277 504l142-199H308l-94 134-39-42v-92H85v507h90V518l122 131h119z"/><glyph glyph-name="l.ordn" horiz-adv-x="260" d="M85 305v507h91V305H85z"/><glyph glyph-name="m.ordn" horiz-adv-x="692" d="M85 305v344h86v-43q14 26 43 39t58 13q35 0 61.5-14.5T374 600q20 32 48 45t62 13q24 0 46-7.5t39.5-23.5 28-40.5T608 528V305h-88v206q0 29-15 47.5T458 577q-31 0-48-20.5T393 507V305h-90v206q0 28-15 47t-47 19-49-20.5-17-49.5V305H85z"/><glyph glyph-name="n.ordn" horiz-adv-x="481" d="M176 305H85v344h88v-44q16 28 43.5 40.5T273 658q31 0 54.5-10.5t39-29.5 23-44 7.5-53V305h-90v201q0 30-15.5 50.5T241 577q-32 0-48.5-21.5T176 502V305z"/><glyph glyph-name="o.ordn" horiz-adv-x="483" d="M242 376q35 0 62 25t27 76-27 75.5-62 24.5-62-24.5-27-75.5q0-50 27-75.5t62-25.5zm0 283q39 0 72-13.5t57-37.5 37.5-57.5T422 477t-13.5-73.5T371 346t-57-37.5-72-13.5-72 13.5-57 37.5-37.5 57.5T62 477t13.5 73.5T113 608t57 37.5 72 13.5z"/><glyph glyph-name="p.ordn" horiz-adv-x="499" d="M85 172v477h87v-44q12 21 40 36t67 15q37 0 66.5-13.5t50-37.5 31-57 10.5-71q0-39-11.5-72T393 348t-51-37.5-66-13.5-62 12.5-39 30.5V172H85zm264 305q0 47-25 73t-63 26q-37 0-62-26t-25-73 25-73.5 62-26.5q38 0 63 26t25 74z"/><glyph glyph-name="q.ordn" horiz-adv-x="490" d="M326 172v169q-12-20-37-32t-60-12q-37 0-67.5 13.5t-52.5 38T74.5 406 62 478q0 37 11.5 70t33 57 52 38 67.5 14q45 0 69.5-17t32.5-33v42h87V172h-89zM153 477q0-47 25-74t62-27 62 27 25 74q0 48-25 74t-62 26-62-26-25-74z"/><glyph glyph-name="r.ordn" horiz-adv-x="297" d="M283 559q-14 3-26 3-17 0-33.5-4.5t-29-15.5-20.5-30-8-48V305H75v344h88v-52q8 17 20 27.5t25.5 16.5 27.5 8.5 25 2.5q6 0 11.5-.5T283 650v-91z"/><glyph glyph-name="s.ordn" horiz-adv-x="400" d="M141 418q2-21 17.5-37.5T205 364q24 0 35.5 10.5T252 399q0 28-38 36l-47 10q-49 11-72 38.5T72 547q0 23 9.5 43.5t27 35.5 40.5 24 50 9q37 0 62-10.5t40.5-25.5 23-32 9.5-31l-76-18q-2 16-14.5 32.5T200 591q-20 0-32.5-11T155 554q0-13 9-21t23-11l45-9q48-9 77-37t29-70q0-20-8-40t-24.5-36-41.5-25.5-58-9.5q-38 0-64.5 11T98 333t-25.5 34-9.5 32z"/><glyph glyph-name="t.ordn" horiz-adv-x="326" d="M198 649h70v-80h-70V420q0-22 10.5-31t31.5-9q8 0 16 1t12 2v-75q-4-2-17.5-5t-34.5-3q-50 0-78.5 27.5T109 405v164H46v80h18q27 0 40 15.5t13 38.5v49h81V649z"/><glyph glyph-name="u.ordn" horiz-adv-x="452" d="M291 305q-2 5-2.5 15.5T288 341q-15-23-42-34t-54-11q-31 0-55.5 10.5t-41 29-25 43.5-8.5 53v217h90V449q0-29 15-50t50-21q32 0 49 19t17 51v201h90V367q0-24 1-39t2-23h-85z"/><glyph glyph-name="v.ordn" horiz-adv-x="413" d="M254 305h-90L24 649h99l86-235 84 235h95z"/><glyph glyph-name="w.ordn" horiz-adv-x="617" d="M357 649l77-226 64 226h90L480 305h-90l-82 238-79-238h-93L26 649h96l65-226 76 226h94z"/><glyph glyph-name="x.ordn" horiz-adv-x="419" d="M156 478L34 649h107l14-21 21-31.5 21-31.5 14-21 69 105h103L263 480q12-17 28-40t33.5-47.5 34-48T387 305H281l-74 108q-4-6-14.5-21.5t-22-32.5-21.5-32.5-14-21.5H33z"/><glyph glyph-name="y.ordn" horiz-adv-x="426" d="M90 169l81 179L25 649h101l93-206 87 206h95L186 169H90z"/><glyph glyph-name="z.ordn" horiz-adv-x="407" d="M62 305v79l166 186H66v79h276v-76L172 383h173v-78H62z"/><glyph glyph-name="space.tf"/><glyph glyph-name="numbersign.tf" d="M469 487h92v-90H450l-31-142h93v-91H400L365 0h-98l35 164H192L157 0H59l35 164H9v91h104l31 142H58v90h105l35 161h98l-35-161h110l35 161h98zM211 255h110l31 142H242z"/><glyph glyph-name="dollar.tf" d="M256-111V-6q-52 6-91 26.5T99.5 69t-41 61.5T41 196l112 31q4-43 28.5-80T256 98v184l-18 4q-80 18-126 64T66 470q0 37 14 70t39.5 59.5T180 643t76 23v106h92V665q44-7 76-25t54-41 34.5-49.5T530 498l-108-34q-2 11-6.5 24.5t-13.5 27-22 25-32 18.5V380l9-2q90-20 135-71.5T537 188q0-34-12-66t-36-58-59.5-44.5T348-5v-106h-92zm-73 588q0-27 17.5-48.5T256 399v164q-36-9-54.5-33T183 477zm238-295q0 27-17.5 48T348 262V98q38 8 55.5 31.5T421 182z"/><glyph glyph-name="percent.tf" d="M526 443L44 116v93l482 329v-95zm-424 76q0-26 16.5-42.5T159 460q25 0 41 16.5t16 42.5-16 42-41 16q-24 0-40.5-16T102 519zm-82 0q0 28 11 53t30 43.5 44.5 29T159 655t53.5-10.5 44.5-29 30-43.5 11-53q0-29-11-54t-30-43.5-44.5-29T159 382q-29 0-54 10.5t-44 29T31 465t-11 54zm333-390q0-26 16.5-42.5T410 70q25 0 41 16.5t16 42.5-16 42-41 16q-24 0-40.5-16T353 129zm-82 0q0 28 11 53t30 44 44.5 29.5T410 266t53.5-10.5T508 226t30-44 11-53q0-29-11-54t-30-43.5-44.5-29T410-8q-29 0-54 10.5t-44 29T282 75t-11 54z"/><glyph glyph-name="plus.tf" d="M236 339v195h99V339h188v-95H335V47h-99v197H48v95h188z"/><glyph glyph-name="comma.tf" d="M187 83q0 36 27 61t67 25q45 0 74-33t29-87q0-60-18-102.5t-45.5-71-60.5-44-61-18.5v67q19 4 37.5 15.5t32.5 28T291.5-40 300 2q-3-2-9.5-3.5T273-3q-38 0-62 23t-24 63z"/><glyph glyph-name="period.tf" d="M193 85q0 39 26.5 66t65.5 27q38 0 65.5-27T378 85t-27.5-65.5T285-7q-39 0-65.5 26.5T193 85z"/><glyph glyph-name="zero.tf" d="M152 324q0-37 3-78.5t16.5-76 40-57T285 90q46 0 73 22.5t40 57 16.5 76T418 324t-3.5 78.5T398 478t-40 56.5-73 22.5q-47 0-73.5-22.5t-40-56.5-16.5-75.5-3-78.5zm-120 0q0 65 10 126.5T84 560t83 75.5T285 663t118-27.5 83-75.5 42-109.5T538 324t-10-127-42-110-83-75-118-27-118 27-83 75-42 110-10 127z"/><glyph glyph-name="one.tf" d="M257 104v340H104v82q69 2 112.5 36.5T271 648h104V104h153V0H94v104h163z"/><glyph glyph-name="two.tf" d="M59 413q-1 7-2 17t-1 20q0 42 15.5 80.5t45 68 72.5 47 98 17.5q54 0 96-16.5t71.5-44 45-64.5 15.5-79q0-63-33-114t-92-87l-126-78q-23-14-41-32t-25-42h321V0H50q1 42 9 79t26 70.5 47.5 63T204 268l107 67q44 27 63.5 57t19.5 65q0 20-7 38t-20.5 32-34 22.5T285 558q-57 0-85-34.5T172 438q0-8 1-16.5t2-16.5z"/><glyph glyph-name="three.tf" d="M166 383l179 160H50v105h450V548L324 394q36-1 71-14t62.5-38 44-61.5T518 197q0-42-16.5-80T454 49.5t-76-47T275-15q-56 0-100.5 17t-76 45T49 112t-21 78l117 24q1-28 11-51.5t27.5-40T224 97t50-9q30 0 52.5 9t38.5 24 24 35 8 42q0 28-10 48.5T360.5 280t-37 19-41.5 6q-23 0-38-3.5t-23-7.5z"/><glyph glyph-name="four.tf" d="M34 272l274 376h154V248h97V142h-97V0H344v142H34v130zm310 255L142 248h202v279z"/><glyph glyph-name="five.tf" d="M157 208q4-52 39-86.5T288 87q25 0 47.5 8.5T375 119t26.5 37 9.5 49q0 30-10.5 52.5T373 295t-39.5 22.5T286 325q-35 0-63-12.5T178 280L65 321l80 327h355V543H226l-40-164q21 22 55 33.5t69 11.5q48 0 89-14.5t70.5-42.5 46-68 16.5-91q0-46-17-86.5t-48.5-71-77-48.5T288-16q-53 0-96.5 16t-75 43T66 105.5 44 179z"/><glyph glyph-name="six.tf" d="M490 533q-20 10-49.5 17.5T377 558q-45 0-83.5-14.5t-67-41.5-46.5-65-22-85q19 30 60 53.5T320 429q48 0 88.5-15.5t69.5-44 45.5-69T540 210q0-51-19.5-92.5t-53-71-78-45.5T295-15q-51 0-97.5 18t-82 55-57 93T37 283q0 89 26 159.5T135.5 562 246 637t140 26q45 0 81-9t57-23zM170 208q0-28 10.5-50.5t28-38 40-24T295 87q25 0 47.5 8.5t39.5 24 27 38 10 50.5-10 50.5-27 38.5-39.5 24-47.5 8-47.5-8-40-24-27.5-38.5-10-50.5z"/><glyph glyph-name="seven.tf" d="M536 543q-21-17-62.5-57T388 380t-81-160.5T259 0H135q5 68 19 127t33.5 110 42.5 93.5 47 76.5q55 79 122 136H30v105h506V543z"/><glyph glyph-name="eight.tf" d="M285 378q49 1 78 27.5t29 67.5q0 37-28.5 64.5T285 565t-78-27.5-28-64.5q0-41 29-67.5t77-27.5zm0-292q60 0 91 29.5t31 69.5-31 70-91 30q-59 0-90-30t-31-70 31-69.5T285 86zm0-101q-56 0-100 14t-75.5 39.5-48 59.5T45 173q0 56 34 98.5t86 60.5q-47 17-76 58.5T60 480q0 40 17 74t47 58 71 37.5 90 13.5 90.5-13.5T447 612t47-58 17-74q0-24-7.5-46.5T482 391t-33.5-35-42.5-24q25-9 47-24.5t38.5-36T517 226t9-53q0-41-16.5-75t-48-59.5-76-39.5T285-15z"/><glyph glyph-name="nine.tf" d="M77 120q19-12 51.5-21t64.5-9q51 0 90 14.5t66 41.5 42 64.5 17 83.5q-18-32-60-53.5T251 219q-44 0-84 14.5T96 276t-49.5 68.5T28 437q0 50 19 91.5T99 600t77 46.5 95 16.5q50 0 96-18.5t81.5-56T505 494t21-134q0-87-21-156.5t-62.5-118-104-74.5T194-15q-40 0-82.5 10T44 22zm315 321q0 27-10 49t-27.5 37.5-39.5 24-46 8.5-46-8.5-39.5-24T156 490t-10-49q0-29 10-51t27-37.5 39-23.5 47-8q24 0 46 8.5t39.5 24T382 391t10 50z"/><glyph glyph-name="colon.tf" d="M196 412q0 37 25.5 63t61.5 26q37 0 63-26t26-63-26-62.5-63-25.5q-36 0-61.5 25.5T196 412zm0-338q0 37 25.5 63t61.5 26q37 0 63-26t26-63-26-62.5T283-14q-36 0-61.5 25.5T196 74z"/><glyph glyph-name="semicolon.tf" d="M195 79q0 33 25.5 56t61.5 23q42 0 69-30t27-81q0-56-17-95t-42-65.5-55.5-40.5-56.5-17v62q18 4 34.5 14.5t30 25.5 21 33.5T300 4q-3-2-8.5-3.5T275-1q-35 0-57.5 21.5T195 79zm3 333q0 37 25.5 63t61.5 26q37 0 63-26t26-63-26-62.5-63-25.5q-36 0-61.5 25.5T198 412z"/><glyph glyph-name="less.tf" d="M73 338l422 212V439L193 292l302-148V33L73 244v94z"/><glyph glyph-name="equal.tf" d="M48 343v94h475v-94H48zm0-197v95h475v-95H48z"/><glyph glyph-name="greater.tf" d="M497 244L75 33v110l304 148L75 438v112l422-212v-94z"/><glyph glyph-name="cent.tf" d="M251 0v90q-41 8-76 29t-60 52-39 70-14 84 14 84.5 39.5 70 60 51T251 559v90h91v-88q37-6 66-20.5t50.5-34 35.5-43 20-47.5l-100-35q-6 23-23 45.5T342 459V188q35 10 53.5 34t24.5 45l98-35q-8-24-22.5-47.5t-36-43.5-51-34.5T342 87V0h-91zm-80 325q0-51 22.5-84.5T251 193v262q-35-14-57.5-46.5T171 325z"/><glyph glyph-name="sterling.tf" d="M125 368q-9 23-15.5 48t-6.5 57q0 39 14.5 73.5t41 60.5 64 41 83.5 15q58 0 97-17t63-44 34-59.5 11-62.5l-111-18q0 50-24.5 75.5T308 563q-38 0-64-23t-26-69q0-28 8-53t18-50h182v-95H274q1-6 1.5-12t.5-12q0-46-21-84.5T193 103h149q45 0 66.5 28t21.5 66l108-12q0-40-12-74t-34.5-58.5T437 14 365 0H56v104q50 19 79 54.5t29 78.5q0 20-4 36H61v95h64z"/><glyph glyph-name="currency.tf" d="M73 242q0 32 8.5 60.5T106 356l-74 75 72 71 74-76q24 14 52 22t58 8q58 0 106-28l73 74 71-71-70-72q17-25 26-55t9-62-9-61.5-25-54.5l69-70-70-70-71 72q-49-29-109-29-61 0-112 31l-73-74-71 70 73 74q-32 49-32 112zm99 0q0-26 9-47t24.5-37 36.5-24.5 46-8.5 46 8.5 36.5 24.5 24 37 8.5 47q0 25-8.5 46.5t-24 37.5-36.5 24.5-46 8.5-46-8.5-36.5-24.5-24.5-37.5-9-46.5z"/><glyph glyph-name="yen.tf" d="M346 144V0H230v144H66v84h164v74H66v84h105L13 648h135l141-251 137 251h131L403 386h110v-84H346v-74h167v-84H346z"/><glyph glyph-name="section.tf" d="M492 251q0-23-7-42.5T466.5 173 441 145t-29-19q40-28 61-65.5T494-18q0-43-17.5-78T430-155.5t-66.5-38T285-207q-48 0-86 13.5T135-155 95-96 80-20L189 0q0-51 24.5-80t72.5-29q40 0 65 21.5T376-28q0 23-13.5 42.5T326 46L223 99q-28 14-53.5 30T125 165.5 94.5 212 83 272q0 23 7 42.5t18.5 35.5 25.5 27.5 29 19.5q-41 28-61.5 65T81 541q0 43 17.5 78t46.5 59.5 66.5 37.5 78.5 13q48 0 86-14t64-39 40-59 15-74l-110-20q0 52-25 80t-71 28q-41 0-66-22.5T198 550q0-47 51-73l102-53q28-14 53.5-30.5t45-36.5 31-46 11.5-60zM229 360q-17-11-27.5-28.5T191 293q0-24 11.5-42.5T243 217l101-54q17 11 28 28t11 39q0 24-11.5 42T331 306z"/><glyph glyph-name="logicalnot.tf" d="M407 142v195H30v97h478V142H407z"/><glyph glyph-name="plusminus.tf" d="M236 405v129h99V405h178v-94H335V183h-99v128H58v94h178zm277-262V47H58v96h455z"/><glyph glyph-name="multiply.tf" d="M285 222L118 51l-69 69 168 172L50 463l69 69 166-171 166 171 69-69-167-171 168-172-69-69z"/><glyph glyph-name="divide.tf" d="M211 473q0 29 21.5 50t50.5 21 50.5-21 21.5-50-21.5-51-50.5-22-50.5 22-21.5 51zM47 341h475v-98H47v98zm164-230q0 29 21.5 50.5T283 183t50.5-21.5T355 111t-21.5-50.5T283 39t-50.5 21.5T211 111z"/><glyph glyph-name="florin.tf" d="M241 388H138v99h123l21 101q8 40 26 69t42 47.5 52 27 57 8.5q32 0 48.5-3.5T541 728V627q-26 8-57 8-12 0-25-2.5T433 621t-23-25.5-16-44.5l-13-64h122v-99H361L280-13q-8-40-26-69t-42-47.5-52-27-57-8.5q-33 0-50 3.5T18-153v101q12-3 27-5t34-2q12 0 25 2.5T129.5-45t23 25.5T168 24z"/><glyph glyph-name="uni2007.tf"/><glyph glyph-name="uni2008.tf"/><glyph glyph-name="perthousand.tf" d="M531 527L45 165v94l486 363v-95zm-441 9q0-23 15-38t37-15 36 15 14 38-14 37.5-36 14.5-37-14.5T90 536zm-71 0q0 25 10 47t26.5 38.5 39 26T142 657t47-9.5 38.5-26T254 583t10-47q0-26-10-47.5t-26.5-38T189 425t-47-9-47.5 9.5-39 25.5T29 489t-10 47zm113-426q0 25 10 47.5t26.5 38.5 38.5 25.5 47 9.5q26 0 48-10t38-27q17 17 39 27t48 10q25 0 47-9.5t39-25.5 27-38.5 10-47.5q0-26-10-47.5t-27-38T474-1t-47-9q-26 0-48 10t-39 27q-16-17-38-27t-48-10q-25 0-47.5 9.5t-39 25.5-26 38-9.5 47zm122 53q-22 0-36.5-15T203 110t14.5-37.5T254 58t36 14.5 14 37.5-14 38-36 15zm173 0q-22 0-36.5-15T376 110t14.5-37.5T427 58t36 14.5 14 37.5-14 38-36 15z"/><glyph glyph-name="Euro.tf" d="M114 287q-1 8-1.5 17t-.5 20 .5 20.5T114 359H44v87h87q18 52 50 92.5t73.5 68.5 90 42 98.5 14q42 0 67-5t48-14l-28-99q-14 5-35 9.5t-52 4.5q-58 0-108-27.5T257 446h244l-26-87H234q-1-5-1.5-13t-.5-22q0-11 .5-20.5T234 287h225l-25-88H259q28-54 77.5-80.5T444 92q31 0 52 4t35 9l27-98q-21-9-48-15t-66-6q-51 0-99 13.5T255.5 40 182 107t-50 92H44v88h70z"/><glyph glyph-name="minus.tf" d="M59 244v96h451v-96H59z"/><glyph glyph-name="approxequal.tf" d="M543 395q-28-45-68-68.5T388 303q-26 0-51.5 7T283 333l-47 26q-29 15-58 15-24 0-46.5-11.5T90 328l-64 54q29 45 68 69t86 24q49 0 105-30l47-25q16-8 31.5-13t31.5-5q24 0 46 11t40 34zm0-198q-28-45-68-68.5T388 105q-51 0-105 30l-47 26q-15 8-29.5 11t-28.5 4q-24 0-47-11.5T90 130l-64 54q29 45 67.5 69t84.5 24q27 0 52.5-7.5T285 247l47-25q16-8 31.5-13t31.5-5q24 0 46 11t40 35z"/><glyph glyph-name="notequal.tf" d="M248 146l-68-98H71l68 98H47v95h157l71 102H47v94h292l66 95h109l-66-95h74v-94H384l-71-102h209v-95H248z"/><glyph glyph-name="lessequal.tf" d="M496 143V47H74v96h422zM74 408l422 141v-99l-292-89 292-91v-99L74 311v97z"/><glyph glyph-name="greaterequal.tf" d="M496 143V47H74v96h422zm0 168L74 171v98l292 90-292 90v100l422-141v-97z"/><glyph glyph-name="parenleft.case" horiz-adv-x="307" d="M48 353q0 77 15 143t41.5 122.5 61 103.5 73.5 86l68-58q-38-43-67.5-86.5T189 572t-32-102-11-117 11-117 32-102 50.5-91.5T307-44l-68-58q-39 39-73.5 86t-61 103.5T63 210 48 353z"/><glyph glyph-name="parenright.case" horiz-adv-x="307" d="M259 353q0-77-15-143T202.5 87.5 141.5-16 68-102L0-44Q37-1 67 42.5t51 91.5 32 102 11 117-11 117-32 102-51 91.5T0 750l68 58q39-39 73.5-86t61-103.5T244 496t15-143z"/><glyph glyph-name="hyphen.case" horiz-adv-x="372" d="M45 291v103h282V291H45z"/><glyph glyph-name="bracketleft.case" horiz-adv-x="304" d="M85-100v909h214v-90H183V-10h116v-90H85z"/><glyph glyph-name="bracketright.case" horiz-adv-x="304" d="M5-100v90h116v729H5v90h214v-909H5z"/><glyph glyph-name="braceleft.case" horiz-adv-x="365" d="M45 404q43 0 74 22t31 75v118q0 97 49 143.5T337 809h23v-89h-22q-45 0-67.5-22.5T248 623V479q0-49-27-81.5T146 354q48-11 75-43t27-81V86q0-52 22.5-74T338-10h22v-89h-23q-89 0-138 46.5T150 91v117q0 52-31 74t-74 22v100z"/><glyph glyph-name="braceright.case" horiz-adv-x="365" d="M320 304q-43 0-74-22t-31-74V91q0-97-49-143.5T28-99H5v89h22q45 0 67.5 22T117 86v144q0 49 27 81t75 43q-48 11-75 43.5T117 479v144q0 52-22.5 74.5T27 720H5v89h23q89 0 138-46.5T215 619V501q0-53 31-75t74-22V304z"/><glyph glyph-name="exclamdown.case" horiz-adv-x="314" d="M227 0H85l30 498h83zM83 642q0 30 21.5 51.5T156 715t52-21.5 22-51.5q0-31-22-52t-52-21-51.5 21T83 642z"/><glyph glyph-name="guillemotleft.case" horiz-adv-x="500" d="M163 150L28 343l136 194h111L141 342l133-192H163zm207 0L235 343l136 194h111L348 342l133-192H370z"/><glyph glyph-name="uni00AD.case" horiz-adv-x="372" d="M45 302v103h282V302H45z"/><glyph glyph-name="guillemotright.case" horiz-adv-x="500" d="M226 150l133 192-134 195h111l136-194-135-193H226zm-207 0l133 192L18 537h111l136-194-135-193H19z"/><glyph glyph-name="questiondown.case" horiz-adv-x="514" d="M320 500q3-18 3-38 0-45-18-82t-62-68l-46-33q-25-18-36-40t-11-48q0-39 26.5-69.5T258 91q29 0 50 10t35 26.5 20.5 37T370 207q0 11-1.5 23.5T364 252l114-12q3-11 4-22.5t1-23.5q0-38-14-75t-42-66.5-70-48T258-14q-56 0-98.5 17T88 48t-43.5 64T30 186q0 60 27.5 102.5T129 362l43 30q24 17 36.5 42.5T221 490v10h99zM197 643q0 30 21 51.5t52 21.5q30 0 51.5-21.5T343 643t-21.5-51.5T270 570q-31 0-52 21.5T197 643z"/><glyph glyph-name="endash.case" horiz-adv-x="627" d="M57 292v101h514V292H57z"/><glyph glyph-name="emdash.case" horiz-adv-x="1079" d="M67 292v101h946V292H67z"/><glyph glyph-name="guilsinglleft.case" horiz-adv-x="293" d="M163 150L28 343l136 194h111L141 342l133-192H163z"/><glyph glyph-name="guilsinglright.case" horiz-adv-x="293" d="M19 150l133 192L18 537h112l135-194-135-193H19z"/><glyph glyph-name="G.ss01" horiz-adv-x="771" d="M403-15q-71 0-136 25.5T152 84 72 200.5 42 355t30 154.5 80 116 115 73T402 724q66 0 119.5-18t94.5-49.5 68-73 39-87.5l-115-35q-9 32-25.5 59.5t-42 48-60 32.5-78.5 12q-45 0-88-15.5t-76-47-53.5-80.5T164 355q0-65 20-113.5t53-81 76-49T403 95q42 0 77 11.5t62 31.5 44 48.5 23 61.5H342v106h390q2-10 2-20v-20q0-68-22-127.5T648 82 544 11 403-15z"/><glyph glyph-name="a.ss02" horiz-adv-x="599" d="M153 246q0-70 35.5-114.5T285 87q28 0 52 11.5t41 32.5 26.5 50.5T414 246q0 71-35.5 112.5T285 400q-59 0-95.5-41.5T153 246zM415 70q-17-35-53.5-59T272-13q-54 0-97 20t-74 55-47.5 82T37 246q0 53 16.5 99.5t47.5 81 73.5 54.5 95.5 20q32 0 56.5-7.5t42-19T397 449t16-26v64h113V89q0-30 2-55.5T531 0H420q-2 8-3.5 26.5T415 70z"/><glyph glyph-name="agrave.ss02" horiz-adv-x="599" d="M153 246q0-70 35.5-114.5T285 87q28 0 52 11.5t41 32.5 26.5 50.5T414 246q0 71-35.5 112.5T285 400q-59 0-95.5-41.5T153 246zM415 70q-17-35-53.5-59T272-13q-54 0-97 20t-74 55-47.5 82T37 246q0 53 16.5 99.5t47.5 81 73.5 54.5 95.5 20q32 0 56.5-7.5t42-19T397 449t16-26v64h113V89q0-30 2-55.5T531 0H420q-2 8-3.5 26.5T415 70zM115 696h139l88-148h-95z"/><glyph glyph-name="aacute.ss02" horiz-adv-x="599" d="M306 548h-95l89 148h137zM153 246q0-70 35.5-114.5T285 87q28 0 52 11.5t41 32.5 26.5 50.5T414 246q0 71-35.5 112.5T285 400q-59 0-95.5-41.5T153 246zM415 70q-17-35-53.5-59T272-13q-54 0-97 20t-74 55-47.5 82T37 246q0 53 16.5 99.5t47.5 81 73.5 54.5 95.5 20q32 0 56.5-7.5t42-19T397 449t16-26v64h113V89q0-30 2-55.5T531 0H420q-2 8-3.5 26.5T415 70z"/><glyph glyph-name="acircumflex.ss02" horiz-adv-x="599" d="M125 549l107 143h121l108-143h-99l-70 77-70-77h-97zm28-303q0-70 35.5-114.5T285 87q28 0 52 11.5t41 32.5 26.5 50.5T414 246q0 71-35.5 112.5T285 400q-59 0-95.5-41.5T153 246zM415 70q-17-35-53.5-59T272-13q-54 0-97 20t-74 55-47.5 82T37 246q0 53 16.5 99.5t47.5 81 73.5 54.5 95.5 20q32 0 56.5-7.5t42-19T397 449t16-26v64h113V89q0-30 2-55.5T531 0H420q-2 8-3.5 26.5T415 70z"/><glyph glyph-name="atilde.ss02" horiz-adv-x="599" d="M153 246q0-70 35.5-114.5T285 87q28 0 52 11.5t41 32.5 26.5 50.5T414 246q0 71-35.5 112.5T285 400q-59 0-95.5-41.5T153 246zM415 70q-17-35-53.5-59T272-13q-54 0-97 20t-74 55-47.5 82T37 246q0 53 16.5 99.5t47.5 81 73.5 54.5 95.5 20q32 0 56.5-7.5t42-19T397 449t16-26v64h113V89q0-30 2-55.5T531 0H420q-2 8-3.5 26.5T415 70zM125 574q0 59 29.5 87t73.5 28q22 0 38.5-6.5T298 667l10-6q11-7 21.5-12t21.5-5q31 0 31 44h76v-17q0-59-29-88t-73-29q-22 0-39 7t-32 16l-10 6q-11 7-21.5 11.5T232 599q-15 0-22.5-10t-7.5-33h-76z"/><glyph glyph-name="adieresis.ss02" horiz-adv-x="599" d="M120 625q0 27 18.5 46t45.5 19q28 0 47-19t19-46q0-28-19-46.5T184 560q-27 0-45.5 18.5T120 625zm200 0q0 27 18.5 46t45.5 19 46-19 19-46q0-28-19-46.5T384 560t-45.5 18.5T320 625zM153 246q0-70 35.5-114.5T285 87q28 0 52 11.5t41 32.5 26.5 50.5T414 246q0 71-35.5 112.5T285 400q-59 0-95.5-41.5T153 246zM415 70q-17-35-53.5-59T272-13q-54 0-97 20t-74 55-47.5 82T37 246q0 53 16.5 99.5t47.5 81 73.5 54.5 95.5 20q32 0 56.5-7.5t42-19T397 449t16-26v64h113V89q0-30 2-55.5T531 0H420q-2 8-3.5 26.5T415 70z"/><glyph glyph-name="aring.ss02" horiz-adv-x="599" d="M153 246q0-70 35.5-114.5T285 87q28 0 52 11.5t41 32.5 26.5 50.5T414 246q0 71-35.5 112.5T285 400q-59 0-95.5-41.5T153 246zM415 70q-17-35-53.5-59T272-13q-54 0-97 20t-74 55-47.5 82T37 246q0 53 16.5 99.5t47.5 81 73.5 54.5 95.5 20q32 0 56.5-7.5t42-19T397 449t16-26v64h113V89q0-30 2-55.5T531 0H420q-2 8-3.5 26.5T415 70zm-21 569q0-24-9-44t-25-34.5-36.5-23T280 529t-43 8.5-36 23-25 34.5-9 44 9 44.5 25 35 36 23 43 8.5 43.5-8.5 36.5-23 25-35 9-44.5zm-70 0q0 20-12.5 32.5T279 684q-18 0-30.5-12.5T236 639q0-19 12.5-31.5T279 595q20 0 32.5 12.5T324 639z"/><glyph glyph-name="r.ss03" horiz-adv-x="367" d="M191 0H75v487h116V0zm1 412q0 35 23 58t57 23q35 0 58-23t23-58q0-34-23-57t-58-23q-34 0-57 23t-23 57z"/><glyph glyph-name="ampersand.ss04" horiz-adv-x="694" d="M386 340h283V237h-79v-6q-1-50-18.5-95T520 57.5t-83-53T324-15q-60 0-109 16t-83.5 44.5-53 67T60 197q0 38 12.5 69.5T105 322t46.5 40 53.5 24q-46 16-78 55.5T95 538q0 39 16 73t45 59 68.5 39.5T311 724q59 0 101-16.5t69.5-44 41-62.5 16.5-72l-117-16q-2 50-29 79.5T312 622q-19 0-37-6.5t-31.5-18-21.5-28-8-36.5q0-24 10-42t25-29.5 32.5-17T314 439h12V336q-24 0-49.5-6.5T230 308t-34.5-39.5T182 208q0-22 8.5-43.5t26.5-38 45-26.5 64-10q66 0 104 37.5T469 231v6h-83v103z"/><glyph glyph-name="one.ss05" horiz-adv-x="477" d="M199 104v340H46v82q69 2 112.5 36.5T213 648h104V104h152V0H42v104h157z"/><glyph glyph-name="registered.ss06" horiz-adv-x="429" d="M24 526q0 39 15 74t40.5 60.5T140 701t74 15 74-15 61-40.5 41-60.5 15-74-15-74-41-60.5-61-40.5-74-15-74 15-60.5 40.5T39 452t-15 74zm51 0q0-30 10.5-55.5t29.5-45 44.5-30.5 54.5-11 54.5 11 44.5 30.5 30 45 11 55.5-11 55.5-30 45-44.5 30.5-54.5 11-54.5-11-44.5-30.5-29.5-45T75 526zm136-31h-13v-65h-54v196h84q29 0 48.5-19t19.5-46q0-18-9.5-33T261 505l36-75h-57zm4 44q11 0 18.5 5.5T241 561t-7.5 16-18.5 5h-17v-43h17z"/><glyph glyph-name="caron.alt" horiz-adv-x="208" d="M110 520H30l29 189h119z"/><glyph glyph-name="commaaccent" horiz-adv-x="201" d="M30 673q0 26 19.5 42.5T97 732q29 0 51.5-20.5T171 652q0-36-12.5-59T127 556t-41.5-19.5T42 531v45q32 0 51.5 13t21.5 33q-2-1-8.5-3.5T90 616q-27 0-43.5 15.5T30 673z"/><glyph glyph-name="commaturn" horiz-adv-x="180" d="M161 596q0-26-19-42t-48-16q-27 0-50.5 20.5T20 618q0 32 12.5 54.5t31.5 37 41.5 21.5 43.5 7v-44q-32 0-51.5-15T76 647q2 2 8.5 4.5T101 654q28 0 44-16t16-42z"/><glyph glyph-name="dieresis.narrow" horiz-adv-x="315" d="M19 625q0 26 17.5 44T80 687t43.5-18 17.5-44-17.5-43.5T80 564t-43.5 17.5T19 625zm155 0q0 26 17.5 44t42.5 18q26 0 44-18t18-44-18-43.5-44-17.5q-25 0-42.5 17.5T174 625z"/><glyph glyph-name="dieresis.uc.narrow" horiz-adv-x="334" d="M20 821q0 26 17.5 44T81 883t44.5-18 18.5-44-18.5-44T81 759t-43.5 18T20 821zm170 0q0 26 18 44t44 18 44-18 18-44-18-44-44-18-44 18-18 44z"/><glyph glyph-name="grave.uc" horiz-adv-x="283" d="M13 883h148l103-124H156z"/><glyph glyph-name="dieresis.uc" horiz-adv-x="427" d="M24 821q0 28 19 47.5T90 888q29 0 48-19.5t19-47.5-19-47-48-19q-28 0-47 19t-19 47zm247 0q0 28 18.5 47.5T336 888q29 0 48-19.5t19-47.5-19-47-48-19q-28 0-46.5 19T271 821z"/><glyph glyph-name="macron.uc" horiz-adv-x="340" d="M20 776v93h300v-93H20z"/><glyph glyph-name="acute.uc" horiz-adv-x="283" d="M128 759H19l102 124h149z"/><glyph glyph-name="circumflex.uc" horiz-adv-x="408" d="M24 759l116 124h129l119-124H278l-75 64-72-64H24z"/><glyph glyph-name="caron.uc" horiz-adv-x="408" d="M133 883l72-65 75 65h108L269 759H140L24 883h109z"/><glyph glyph-name="breve.uc" horiz-adv-x="369" d="M185 754q-39 0-68.5 11.5t-49.5 30T36 838t-12 48h93q2-19 17.5-36.5T185 832t50.5 17.5T252 886h93q-1-24-11.5-48T303 795.5t-49.5-30T185 754z"/><glyph glyph-name="dotaccent.uc" horiz-adv-x="186" d="M20 826q0 31 21.5 52T93 899t51.5-21 21.5-52q0-29-21.5-50T93 755t-51.5 21T20 826z"/><glyph glyph-name="ring.uc" horiz-adv-x="285" d="M265 860q0-26-10-47.5T228 775t-39-25-47-9q-24 0-46.5 9t-39 25T30 812.5 20 860q0 25 10 47t26.5 38 39 25 46.5 9q25 0 47-9t39-25 27-38 10-47zm-76 0q0 21-13.5 34T142 907t-33.5-13T95 860t13.5-34 33.5-13 33.5 13 13.5 34z"/><glyph glyph-name="tilde.uc" horiz-adv-x="372" d="M353 863q0-55-28.5-82.5T254 753q-22 0-40 7t-33 16l-10 7q-12 8-23 12.5t-22 4.5-20.5-8-9.5-25v-10H21v22q0 56 29 83t71 27q22 0 40.5-7t33.5-16l10-6q12-7 22.5-12t20.5-5q13 0 22 7.5t9 25.5v10h74v-23z"/><glyph glyph-name="hungarumlaut.uc" horiz-adv-x="376" d="M99 759H20l56 124h118zm150 0h-80l69 124h118z"/><glyph glyph-name="caron.alt.uc" horiz-adv-x="208" d="M115 509H30l31 200h126z"/><glyph glyph-name="undercommaaccent" horiz-adv-x="181" d="M20-96q0 25 19.5 42T87-37t51-20.5 23-60.5q0-34-12.5-57t-31-37T76-232t-44-6v44q32 0 51.5 14.5T105-146q-2-2-8.5-4.5T80-153q-27 0-43.5 15.5T20-96z"/></font>
</defs>
</svg>
